G04 #@! TF.GenerationSoftware,KiCad,Pcbnew,5.0.2+dfsg1-1*
G04 #@! TF.CreationDate,2019-07-13T11:11:03-06:00*
G04 #@! TF.ProjectId,CAT,4341542e-6b69-4636-9164-5f7063625858,0.1*
G04 #@! TF.SameCoordinates,Original*
G04 #@! TF.FileFunction,Copper,L4,Bot*
G04 #@! TF.FilePolarity,Positive*
%FSLAX46Y46*%
G04 Gerber Fmt 4.6, Leading zero omitted, Abs format (unit mm)*
G04 Created by KiCad (PCBNEW 5.0.2+dfsg1-1) date Sat 13 Jul 2019 11:11:03 AM MDT*
%MOMM*%
%LPD*%
G01*
G04 APERTURE LIST*
G04 #@! TA.AperFunction,EtchedComponent*
%ADD10C,0.203200*%
G04 #@! TD*
G04 #@! TA.AperFunction,ComponentPad*
%ADD11C,1.089660*%
G04 #@! TD*
G04 #@! TA.AperFunction,ComponentPad*
%ADD12C,2.024380*%
G04 #@! TD*
G04 #@! TA.AperFunction,ComponentPad*
%ADD13C,1.000000*%
G04 #@! TD*
G04 #@! TA.AperFunction,ComponentPad*
%ADD14C,4.500000*%
G04 #@! TD*
G04 #@! TA.AperFunction,SMDPad,CuDef*
%ADD15R,0.203200X0.406400*%
G04 #@! TD*
G04 #@! TA.AperFunction,ComponentPad*
%ADD16R,1.727200X1.727200*%
G04 #@! TD*
G04 #@! TA.AperFunction,ComponentPad*
%ADD17O,1.727200X1.727200*%
G04 #@! TD*
G04 #@! TA.AperFunction,SMDPad,CuDef*
%ADD18R,0.450000X0.590000*%
G04 #@! TD*
G04 #@! TA.AperFunction,SMDPad,CuDef*
%ADD19R,0.900000X0.450000*%
G04 #@! TD*
G04 #@! TA.AperFunction,SMDPad,CuDef*
%ADD20R,0.800000X0.750000*%
G04 #@! TD*
G04 #@! TA.AperFunction,SMDPad,CuDef*
%ADD21R,0.750000X0.800000*%
G04 #@! TD*
G04 #@! TA.AperFunction,SMDPad,CuDef*
%ADD22R,1.000000X1.250000*%
G04 #@! TD*
G04 #@! TA.AperFunction,SMDPad,CuDef*
%ADD23R,1.250000X1.000000*%
G04 #@! TD*
G04 #@! TA.AperFunction,SMDPad,CuDef*
%ADD24R,0.900000X0.500000*%
G04 #@! TD*
G04 #@! TA.AperFunction,SMDPad,CuDef*
%ADD25R,0.500000X0.900000*%
G04 #@! TD*
G04 #@! TA.AperFunction,ComponentPad*
%ADD26C,1.501140*%
G04 #@! TD*
G04 #@! TA.AperFunction,ComponentPad*
%ADD27R,1.320800X1.320800*%
G04 #@! TD*
G04 #@! TA.AperFunction,ComponentPad*
%ADD28C,1.320800*%
G04 #@! TD*
G04 #@! TA.AperFunction,SMDPad,CuDef*
%ADD29R,0.406400X0.203200*%
G04 #@! TD*
G04 #@! TA.AperFunction,SMDPad,CuDef*
%ADD30R,0.508000X0.762000*%
G04 #@! TD*
G04 #@! TA.AperFunction,SMDPad,CuDef*
%ADD31R,2.032000X3.657600*%
G04 #@! TD*
G04 #@! TA.AperFunction,SMDPad,CuDef*
%ADD32R,2.032000X1.016000*%
G04 #@! TD*
G04 #@! TA.AperFunction,ComponentPad*
%ADD33R,1.524000X1.524000*%
G04 #@! TD*
G04 #@! TA.AperFunction,ComponentPad*
%ADD34C,1.524000*%
G04 #@! TD*
G04 #@! TA.AperFunction,SMDPad,CuDef*
%ADD35R,1.300000X1.500000*%
G04 #@! TD*
G04 #@! TA.AperFunction,SMDPad,CuDef*
%ADD36R,0.450000X0.900000*%
G04 #@! TD*
G04 #@! TA.AperFunction,ComponentPad*
%ADD37C,1.200000*%
G04 #@! TD*
G04 #@! TA.AperFunction,ViaPad*
%ADD38C,0.500000*%
G04 #@! TD*
G04 #@! TA.AperFunction,ViaPad*
%ADD39C,0.609600*%
G04 #@! TD*
G04 #@! TA.AperFunction,ViaPad*
%ADD40C,1.016000*%
G04 #@! TD*
G04 #@! TA.AperFunction,Conductor*
%ADD41C,0.203200*%
G04 #@! TD*
G04 #@! TA.AperFunction,Conductor*
%ADD42C,0.406400*%
G04 #@! TD*
G04 #@! TA.AperFunction,Conductor*
%ADD43C,0.152400*%
G04 #@! TD*
G04 #@! TA.AperFunction,Conductor*
%ADD44C,1.016000*%
G04 #@! TD*
G04 #@! TA.AperFunction,Conductor*
%ADD45C,0.254000*%
G04 #@! TD*
G04 #@! TA.AperFunction,Conductor*
%ADD46C,0.609600*%
G04 #@! TD*
G04 #@! TA.AperFunction,Conductor*
%ADD47C,0.812800*%
G04 #@! TD*
G04 #@! TA.AperFunction,Conductor*
%ADD48C,0.099990*%
G04 #@! TD*
G04 #@! TA.AperFunction,Conductor*
%ADD49C,0.100000*%
G04 #@! TD*
G04 APERTURE END LIST*
D10*
G04 #@! TO.C,SH3*
X41390000Y-50604000D02*
X41390000Y-49969000D01*
G04 #@! TO.C,SH4*
X36830000Y-50614000D02*
X36830000Y-49979000D01*
G04 #@! TO.C,SH2*
X51054000Y-9779000D02*
X51054000Y-10414000D01*
G04 #@! TO.C,SH5*
X26670000Y-13970000D02*
X26035000Y-13970000D01*
G04 #@! TO.C,SH6*
X26162000Y-8382000D02*
X26797000Y-8382000D01*
G04 #@! TO.C,SH1*
X14478000Y-10668000D02*
X14478000Y-10033000D01*
G04 #@! TD*
D11*
G04 #@! TO.P,SATA2,1*
G04 #@! TO.N,GND*
X55154000Y-18780000D03*
G04 #@! TO.P,SATA2,2*
G04 #@! TO.N,/SATA2_A_P*
X56654000Y-17510000D03*
G04 #@! TO.P,SATA2,3*
G04 #@! TO.N,/SATA2_A_N*
X56654000Y-16240000D03*
G04 #@! TO.P,SATA2,4*
G04 #@! TO.N,GND*
X55154000Y-14970000D03*
G04 #@! TO.P,SATA2,5*
G04 #@! TO.N,/SATA2_B_N*
X56654000Y-13700000D03*
G04 #@! TO.P,SATA2,6*
G04 #@! TO.N,/SATA2_B_P*
X56654000Y-12430000D03*
G04 #@! TO.P,SATA2,7*
G04 #@! TO.N,Net-(JP6-Pad2)*
X55154000Y-11160000D03*
D12*
G04 #@! TO.P,SATA2,P1*
G04 #@! TO.N,N/C*
X56654000Y-21240000D03*
G04 #@! TO.P,SATA2,P2*
X57654000Y-8410000D03*
G04 #@! TD*
D13*
G04 #@! TO.P,REF\002A\002A,1*
G04 #@! TO.N,VCCIO_3*
X55245000Y-29845000D03*
G04 #@! TD*
G04 #@! TO.P,REF\002A\002A,1*
G04 #@! TO.N,VCCIO_3*
X53721000Y-28956000D03*
G04 #@! TD*
G04 #@! TO.P,REF\002A\002A,1*
G04 #@! TO.N,VCCIO_3*
X56261000Y-31115000D03*
G04 #@! TD*
G04 #@! TO.P,REF\002A\002A,1*
G04 #@! TO.N,+1.2V*
X14224000Y-36830000D03*
G04 #@! TD*
G04 #@! TO.P,REF\002A\002A,1*
G04 #@! TO.N,+1.2V*
X13208000Y-42164000D03*
G04 #@! TD*
G04 #@! TO.P,REF\002A\002A,1*
G04 #@! TO.N,+1.2V*
X15748000Y-42164000D03*
G04 #@! TD*
G04 #@! TO.P,REF\002A\002A,1*
G04 #@! TO.N,+1.2V*
X14986000Y-40386000D03*
G04 #@! TD*
G04 #@! TO.P,REF\002A\002A,1*
G04 #@! TO.N,+1.2V*
X12446000Y-40386000D03*
G04 #@! TD*
G04 #@! TO.P,REF\002A\002A,1*
G04 #@! TO.N,+1.2V*
X14224000Y-38608000D03*
G04 #@! TD*
G04 #@! TO.P,REF\002A\002A,1*
G04 #@! TO.N,+1.2V*
X8382000Y-41529000D03*
G04 #@! TD*
G04 #@! TO.P,REF\002A\002A,1*
G04 #@! TO.N,+1.2V*
X8382000Y-39624000D03*
G04 #@! TD*
G04 #@! TO.P,REF\002A\002A,1*
G04 #@! TO.N,+5V*
X8890000Y-25400000D03*
G04 #@! TD*
G04 #@! TO.P,REF\002A\002A,1*
G04 #@! TO.N,+5V*
X11684000Y-20574000D03*
G04 #@! TD*
G04 #@! TO.P,REF\002A\002A,1*
G04 #@! TO.N,+5V*
X9906000Y-20574000D03*
G04 #@! TD*
G04 #@! TO.P,REF\002A\002A,1*
G04 #@! TO.N,+5V*
X8128000Y-20574000D03*
G04 #@! TD*
G04 #@! TO.P,REF\002A\002A,1*
G04 #@! TO.N,+5V*
X7112000Y-25400000D03*
G04 #@! TD*
G04 #@! TO.P,REF\002A\002A,1*
G04 #@! TO.N,+5V*
X7112000Y-27178000D03*
G04 #@! TD*
G04 #@! TO.P,REF\002A\002A,1*
G04 #@! TO.N,+3.3V*
X11430000Y-25400000D03*
G04 #@! TD*
G04 #@! TO.P,REF\002A\002A,1*
G04 #@! TO.N,+5V*
X7112000Y-28956000D03*
G04 #@! TD*
G04 #@! TO.P,REF\002A\002A,1*
G04 #@! TO.N,+3.3V*
X15494000Y-27686000D03*
G04 #@! TD*
G04 #@! TO.P,REF\002A\002A,1*
G04 #@! TO.N,+3.3V*
X15494000Y-34798000D03*
G04 #@! TD*
G04 #@! TO.P,REF\002A\002A,1*
G04 #@! TO.N,+3.3V*
X14478000Y-33528000D03*
G04 #@! TD*
G04 #@! TO.P,REF\002A\002A,1*
G04 #@! TO.N,+3.3V*
X15494000Y-32258000D03*
G04 #@! TD*
G04 #@! TO.P,REF\002A\002A,1*
G04 #@! TO.N,+3.3V*
X15494000Y-29718000D03*
G04 #@! TD*
G04 #@! TO.P,REF\002A\002A,1*
G04 #@! TO.N,+3.3V*
X14478000Y-30988000D03*
G04 #@! TD*
G04 #@! TO.P,REF\002A\002A,1*
G04 #@! TO.N,+3.3V*
X13462000Y-32258000D03*
G04 #@! TD*
G04 #@! TO.P,REF\002A\002A,1*
G04 #@! TO.N,+3.3V*
X13462000Y-29718000D03*
G04 #@! TD*
G04 #@! TO.P,REF\002A\002A,1*
G04 #@! TO.N,+3.3V*
X12446000Y-30988000D03*
G04 #@! TD*
G04 #@! TO.P,REF\002A\002A,1*
G04 #@! TO.N,+3.3V*
X11430000Y-32258000D03*
G04 #@! TD*
D14*
G04 #@! TO.P,CON1,1*
G04 #@! TO.N,Net-(CON1-Pad1)*
X10264140Y-11684000D03*
G04 #@! TO.P,CON1,2*
G04 #@! TO.N,GND*
X4264660Y-11684000D03*
G04 #@! TO.P,CON1,3*
G04 #@! TO.N,Net-(CON1-Pad3)*
X7264400Y-16383000D03*
G04 #@! TD*
D15*
G04 #@! TO.P,SH3,1*
G04 #@! TO.N,Net-(GR4-Pad3)*
X41390000Y-50604000D03*
G04 #@! TO.P,SH3,2*
G04 #@! TO.N,+3.3V*
X41390000Y-49969000D03*
G04 #@! TD*
G04 #@! TO.P,SH4,1*
G04 #@! TO.N,Net-(GR5-Pad3)*
X36830000Y-50614000D03*
G04 #@! TO.P,SH4,2*
G04 #@! TO.N,+3.3V*
X36830000Y-49979000D03*
G04 #@! TD*
D16*
G04 #@! TO.P,GPIO1,1*
G04 #@! TO.N,Net-(GPIO1-Pad1)*
X8370000Y-5270000D03*
D17*
G04 #@! TO.P,GPIO1,2*
G04 #@! TO.N,+5V-RPi*
X8370000Y-2730000D03*
G04 #@! TO.P,GPIO1,3*
G04 #@! TO.N,BCM2_SDA*
X10910000Y-5270000D03*
G04 #@! TO.P,GPIO1,4*
G04 #@! TO.N,+5V-RPi*
X10910000Y-2730000D03*
G04 #@! TO.P,GPIO1,5*
G04 #@! TO.N,BCM3_SCL*
X13450000Y-5270000D03*
G04 #@! TO.P,GPIO1,6*
G04 #@! TO.N,GND*
X13450000Y-2730000D03*
G04 #@! TO.P,GPIO1,7*
G04 #@! TO.N,BCM4_GPCLK0*
X15990000Y-5270000D03*
G04 #@! TO.P,GPIO1,8*
G04 #@! TO.N,BCM14_TXD*
X15990000Y-2730000D03*
G04 #@! TO.P,GPIO1,9*
G04 #@! TO.N,GND*
X18530000Y-5270000D03*
G04 #@! TO.P,GPIO1,10*
G04 #@! TO.N,BCM15_RXD*
X18530000Y-2730000D03*
G04 #@! TO.P,GPIO1,11*
G04 #@! TO.N,BCM17*
X21070000Y-5270000D03*
G04 #@! TO.P,GPIO1,12*
G04 #@! TO.N,BCM18_PCM_C*
X21070000Y-2730000D03*
G04 #@! TO.P,GPIO1,13*
G04 #@! TO.N,BCM27_PCM_0*
X23610000Y-5270000D03*
G04 #@! TO.P,GPIO1,14*
G04 #@! TO.N,GND*
X23610000Y-2730000D03*
G04 #@! TO.P,GPIO1,15*
G04 #@! TO.N,BCM22*
X26150000Y-5270000D03*
G04 #@! TO.P,GPIO1,16*
G04 #@! TO.N,BCM23*
X26150000Y-2730000D03*
G04 #@! TO.P,GPIO1,17*
G04 #@! TO.N,Net-(GPIO1-Pad17)*
X28690000Y-5270000D03*
G04 #@! TO.P,GPIO1,18*
G04 #@! TO.N,BCM24*
X28690000Y-2730000D03*
G04 #@! TO.P,GPIO1,19*
G04 #@! TO.N,BCM10_MOSI*
X31230000Y-5270000D03*
G04 #@! TO.P,GPIO1,20*
G04 #@! TO.N,GND*
X31230000Y-2730000D03*
G04 #@! TO.P,GPIO1,21*
G04 #@! TO.N,BCM9_MISO*
X33770000Y-5270000D03*
G04 #@! TO.P,GPIO1,22*
G04 #@! TO.N,BCM25*
X33770000Y-2730000D03*
G04 #@! TO.P,GPIO1,23*
G04 #@! TO.N,BCM11_SCLK*
X36310000Y-5270000D03*
G04 #@! TO.P,GPIO1,24*
G04 #@! TO.N,BCM8_CE0*
X36310000Y-2730000D03*
G04 #@! TO.P,GPIO1,25*
G04 #@! TO.N,GND*
X38850000Y-5270000D03*
G04 #@! TO.P,GPIO1,26*
G04 #@! TO.N,BCM7_CE1*
X38850000Y-2730000D03*
G04 #@! TO.P,GPIO1,27*
G04 #@! TO.N,BCM0_ID_SD*
X41390000Y-5270000D03*
G04 #@! TO.P,GPIO1,28*
G04 #@! TO.N,BCM1_ID_SC*
X41390000Y-2730000D03*
G04 #@! TO.P,GPIO1,29*
G04 #@! TO.N,BCM5*
X43930000Y-5270000D03*
G04 #@! TO.P,GPIO1,30*
G04 #@! TO.N,GND*
X43930000Y-2730000D03*
G04 #@! TO.P,GPIO1,31*
G04 #@! TO.N,BCM6*
X46470000Y-5270000D03*
G04 #@! TO.P,GPIO1,32*
G04 #@! TO.N,BCM12*
X46470000Y-2730000D03*
G04 #@! TO.P,GPIO1,33*
G04 #@! TO.N,BCM13*
X49010000Y-5270000D03*
G04 #@! TO.P,GPIO1,34*
G04 #@! TO.N,GND*
X49010000Y-2730000D03*
G04 #@! TO.P,GPIO1,35*
G04 #@! TO.N,BCM19_MISO*
X51550000Y-5270000D03*
G04 #@! TO.P,GPIO1,36*
G04 #@! TO.N,BCM16*
X51550000Y-2730000D03*
G04 #@! TO.P,GPIO1,37*
G04 #@! TO.N,BCM26*
X54090000Y-5270000D03*
G04 #@! TO.P,GPIO1,38*
G04 #@! TO.N,BCM20_MOSI*
X54090000Y-2730000D03*
G04 #@! TO.P,GPIO1,39*
G04 #@! TO.N,GND*
X56630000Y-5270000D03*
G04 #@! TO.P,GPIO1,40*
G04 #@! TO.N,BCM21_SCLK*
X56630000Y-2730000D03*
G04 #@! TD*
D18*
G04 #@! TO.P,D1,1*
G04 #@! TO.N,Net-(D1-Pad1)*
X36083240Y-28934040D03*
G04 #@! TO.P,D1,2*
G04 #@! TO.N,+3.3V*
X36083240Y-26824040D03*
G04 #@! TD*
D19*
G04 #@! TO.P,RN3,1*
G04 #@! TO.N,Net-(RN12-Pad5)*
X35345000Y-11449000D03*
G04 #@! TO.P,RN3,2*
G04 #@! TO.N,Net-(RN12-Pad6)*
X35345000Y-10649000D03*
G04 #@! TO.P,RN3,3*
G04 #@! TO.N,+3.3V*
X37045000Y-10649000D03*
G04 #@! TO.P,RN3,4*
X37045000Y-11449000D03*
G04 #@! TD*
D20*
G04 #@! TO.P,C5,1*
G04 #@! TO.N,+3.3V*
X44438000Y-9969500D03*
G04 #@! TO.P,C5,2*
G04 #@! TO.N,GND*
X42938000Y-9969500D03*
G04 #@! TD*
G04 #@! TO.P,C8,1*
G04 #@! TO.N,+3.3V*
X19824000Y-22098000D03*
G04 #@! TO.P,C8,2*
G04 #@! TO.N,GND*
X21324000Y-22098000D03*
G04 #@! TD*
G04 #@! TO.P,C9,1*
G04 #@! TO.N,+3.3V*
X19824000Y-15494000D03*
G04 #@! TO.P,C9,2*
G04 #@! TO.N,GND*
X21324000Y-15494000D03*
G04 #@! TD*
G04 #@! TO.P,C10,1*
G04 #@! TO.N,+3.3V*
X27384440Y-19484340D03*
G04 #@! TO.P,C10,2*
G04 #@! TO.N,GND*
X25884440Y-19484340D03*
G04 #@! TD*
G04 #@! TO.P,C11,1*
G04 #@! TO.N,+3.3V*
X19930680Y-36553140D03*
G04 #@! TO.P,C11,2*
G04 #@! TO.N,GND*
X21430680Y-36553140D03*
G04 #@! TD*
D21*
G04 #@! TO.P,C12,1*
G04 #@! TO.N,+3.3V*
X19812000Y-25896000D03*
G04 #@! TO.P,C12,2*
G04 #@! TO.N,GND*
X19812000Y-24396000D03*
G04 #@! TD*
D20*
G04 #@! TO.P,C13,1*
G04 #@! TO.N,+3.3V*
X27420000Y-24638000D03*
G04 #@! TO.P,C13,2*
G04 #@! TO.N,GND*
X25920000Y-24638000D03*
G04 #@! TD*
D21*
G04 #@! TO.P,C14,1*
G04 #@! TO.N,+3.3V*
X19812000Y-17538000D03*
G04 #@! TO.P,C14,2*
G04 #@! TO.N,GND*
X19812000Y-19038000D03*
G04 #@! TD*
G04 #@! TO.P,C16,1*
G04 #@! TO.N,+3.3V*
X48701960Y-19851500D03*
G04 #@! TO.P,C16,2*
G04 #@! TO.N,GND*
X48701960Y-18351500D03*
G04 #@! TD*
D20*
G04 #@! TO.P,C17,1*
G04 #@! TO.N,+3.3V*
X40306560Y-28056840D03*
G04 #@! TO.P,C17,2*
G04 #@! TO.N,GND*
X41806560Y-28056840D03*
G04 #@! TD*
D21*
G04 #@! TO.P,C18,1*
G04 #@! TO.N,+3.3V*
X36522660Y-33821940D03*
G04 #@! TO.P,C18,2*
G04 #@! TO.N,GND*
X36522660Y-35321940D03*
G04 #@! TD*
G04 #@! TO.P,C19,1*
G04 #@! TO.N,VCCIO_3*
X49199800Y-27482800D03*
G04 #@! TO.P,C19,2*
G04 #@! TO.N,GND*
X49199800Y-25982800D03*
G04 #@! TD*
G04 #@! TO.P,C20,1*
G04 #@! TO.N,+3.3V*
X47162720Y-19851500D03*
G04 #@! TO.P,C20,2*
G04 #@! TO.N,GND*
X47162720Y-18351500D03*
G04 #@! TD*
G04 #@! TO.P,C21,1*
G04 #@! TO.N,+3.3V*
X37805360Y-21965920D03*
G04 #@! TO.P,C21,2*
G04 #@! TO.N,GND*
X37805360Y-23465920D03*
G04 #@! TD*
D20*
G04 #@! TO.P,C22,1*
G04 #@! TO.N,+3.3V*
X39483600Y-37490400D03*
G04 #@! TO.P,C22,2*
G04 #@! TO.N,GND*
X40983600Y-37490400D03*
G04 #@! TD*
D21*
G04 #@! TO.P,C23,1*
G04 #@! TO.N,VCCIO_3*
X47574200Y-27482800D03*
G04 #@! TO.P,C23,2*
G04 #@! TO.N,GND*
X47574200Y-25982800D03*
G04 #@! TD*
G04 #@! TO.P,C24,1*
G04 #@! TO.N,+3.3V*
X45633640Y-19847560D03*
G04 #@! TO.P,C24,2*
G04 #@! TO.N,GND*
X45633640Y-18347560D03*
G04 #@! TD*
G04 #@! TO.P,C25,1*
G04 #@! TO.N,+3.3V*
X38666420Y-26397080D03*
G04 #@! TO.P,C25,2*
G04 #@! TO.N,GND*
X38666420Y-24897080D03*
G04 #@! TD*
G04 #@! TO.P,C26,1*
G04 #@! TO.N,+3.3V*
X34968180Y-33822640D03*
G04 #@! TO.P,C26,2*
G04 #@! TO.N,GND*
X34968180Y-35322640D03*
G04 #@! TD*
D20*
G04 #@! TO.P,C27,1*
G04 #@! TO.N,VCCIO_3*
X47495460Y-23088600D03*
G04 #@! TO.P,C27,2*
G04 #@! TO.N,GND*
X48995460Y-23088600D03*
G04 #@! TD*
D21*
G04 #@! TO.P,C28,1*
G04 #@! TO.N,+3.3V*
X44091860Y-19857720D03*
G04 #@! TO.P,C28,2*
G04 #@! TO.N,GND*
X44091860Y-18357720D03*
G04 #@! TD*
G04 #@! TO.P,C29,1*
G04 #@! TO.N,+3.3V*
X36253420Y-25570180D03*
G04 #@! TO.P,C29,2*
G04 #@! TO.N,GND*
X36253420Y-24070180D03*
G04 #@! TD*
G04 #@! TO.P,C30,1*
G04 #@! TO.N,+3.3V*
X45059600Y-33731200D03*
G04 #@! TO.P,C30,2*
G04 #@! TO.N,GND*
X45059600Y-35231200D03*
G04 #@! TD*
D20*
G04 #@! TO.P,C31,1*
G04 #@! TO.N,VCCIO_3*
X47484600Y-21523960D03*
G04 #@! TO.P,C31,2*
G04 #@! TO.N,GND*
X48984600Y-21523960D03*
G04 #@! TD*
D22*
G04 #@! TO.P,C32,1*
G04 #@! TO.N,Net-(C32-Pad1)*
X41538400Y-32004000D03*
G04 #@! TO.P,C32,2*
G04 #@! TO.N,Net-(C32-Pad2)*
X39538400Y-32004000D03*
G04 #@! TD*
D23*
G04 #@! TO.P,C33,1*
G04 #@! TO.N,Net-(C33-Pad1)*
X41412160Y-21830280D03*
G04 #@! TO.P,C33,2*
G04 #@! TO.N,Net-(C33-Pad2)*
X41412160Y-23830280D03*
G04 #@! TD*
D20*
G04 #@! TO.P,C34,1*
G04 #@! TO.N,Net-(C32-Pad1)*
X41773540Y-29657040D03*
G04 #@! TO.P,C34,2*
G04 #@! TO.N,Net-(C32-Pad2)*
X40273540Y-29657040D03*
G04 #@! TD*
D21*
G04 #@! TO.P,C35,1*
G04 #@! TO.N,Net-(C33-Pad1)*
X39456360Y-21934740D03*
G04 #@! TO.P,C35,2*
G04 #@! TO.N,Net-(C33-Pad2)*
X39456360Y-23434740D03*
G04 #@! TD*
G04 #@! TO.P,C38,1*
G04 #@! TO.N,+1.2V*
X45958760Y-23334980D03*
G04 #@! TO.P,C38,2*
G04 #@! TO.N,GND*
X45958760Y-24834980D03*
G04 #@! TD*
G04 #@! TO.P,C39,1*
G04 #@! TO.N,+3.3V*
X42158920Y-19860260D03*
G04 #@! TO.P,C39,2*
G04 #@! TO.N,GND*
X42158920Y-18360260D03*
G04 #@! TD*
D20*
G04 #@! TO.P,C40,1*
G04 #@! TO.N,+1.2V*
X44689460Y-21783040D03*
G04 #@! TO.P,C40,2*
G04 #@! TO.N,GND*
X43189460Y-21783040D03*
G04 #@! TD*
D21*
G04 #@! TO.P,C41,1*
G04 #@! TO.N,+3.3V*
X40629840Y-19860260D03*
G04 #@! TO.P,C41,2*
G04 #@! TO.N,GND*
X40629840Y-18360260D03*
G04 #@! TD*
G04 #@! TO.P,C42,1*
G04 #@! TO.N,+1.2V*
X43322240Y-28030740D03*
G04 #@! TO.P,C42,2*
G04 #@! TO.N,GND*
X43322240Y-29530740D03*
G04 #@! TD*
G04 #@! TO.P,C43,1*
G04 #@! TO.N,+3.3V*
X39093140Y-19870420D03*
G04 #@! TO.P,C43,2*
G04 #@! TO.N,GND*
X39093140Y-18370420D03*
G04 #@! TD*
D20*
G04 #@! TO.P,C44,1*
G04 #@! TO.N,+1.2V*
X42767820Y-26512520D03*
G04 #@! TO.P,C44,2*
G04 #@! TO.N,GND*
X44267820Y-26512520D03*
G04 #@! TD*
D21*
G04 #@! TO.P,C45,1*
G04 #@! TO.N,+1.2V*
X33411160Y-33806700D03*
G04 #@! TO.P,C45,2*
G04 #@! TO.N,GND*
X33411160Y-35306700D03*
G04 #@! TD*
D20*
G04 #@! TO.P,C46,1*
G04 #@! TO.N,+1.2V*
X42777280Y-24968200D03*
G04 #@! TO.P,C46,2*
G04 #@! TO.N,GND*
X44277280Y-24968200D03*
G04 #@! TD*
D21*
G04 #@! TO.P,C47,1*
G04 #@! TO.N,+3.3V*
X43484800Y-33731200D03*
G04 #@! TO.P,C47,2*
G04 #@! TO.N,GND*
X43484800Y-35231200D03*
G04 #@! TD*
D24*
G04 #@! TO.P,R1,1*
G04 #@! TO.N,Net-(C32-Pad2)*
X37868860Y-29690760D03*
G04 #@! TO.P,R1,2*
G04 #@! TO.N,+1.2V*
X37868860Y-28190760D03*
G04 #@! TD*
D25*
G04 #@! TO.P,R6,1*
G04 #@! TO.N,Net-(C33-Pad2)*
X42935460Y-23375620D03*
G04 #@! TO.P,R6,2*
G04 #@! TO.N,+1.2V*
X44435460Y-23375620D03*
G04 #@! TD*
D26*
G04 #@! TO.P,TP-1.2V1,1*
G04 #@! TO.N,+1.2V*
X16002000Y-37338000D03*
G04 #@! TD*
G04 #@! TO.P,TP-3.3V1,1*
G04 #@! TO.N,+3.3V*
X15494000Y-25400000D03*
G04 #@! TD*
G04 #@! TO.P,TP-5V1,1*
G04 #@! TO.N,+5V*
X6350000Y-20574000D03*
G04 #@! TD*
G04 #@! TO.P,TP-GND1,1*
G04 #@! TO.N,GND*
X46482000Y-7874000D03*
G04 #@! TD*
D19*
G04 #@! TO.P,RN6,1*
G04 #@! TO.N,Net-(RN6-Pad1)*
X54880880Y-34705440D03*
G04 #@! TO.P,RN6,2*
G04 #@! TO.N,Net-(RN6-Pad2)*
X54880880Y-35505440D03*
G04 #@! TO.P,RN6,3*
G04 #@! TO.N,Net-(RN6-Pad3)*
X54880880Y-36305440D03*
G04 #@! TO.P,RN6,4*
G04 #@! TO.N,Net-(RN6-Pad4)*
X54880880Y-37105440D03*
G04 #@! TO.P,RN6,5*
G04 #@! TO.N,GND*
X53180880Y-37105440D03*
G04 #@! TO.P,RN6,6*
X53180880Y-36305440D03*
G04 #@! TO.P,RN6,7*
X53180880Y-35505440D03*
G04 #@! TO.P,RN6,8*
X53180880Y-34705440D03*
G04 #@! TD*
D16*
G04 #@! TO.P,HDR1,1*
G04 #@! TO.N,HDR1-1*
X61214000Y-25654000D03*
D17*
G04 #@! TO.P,HDR1,2*
G04 #@! TO.N,HDR1-2*
X63754000Y-25654000D03*
G04 #@! TO.P,HDR1,3*
G04 #@! TO.N,HDR1-3*
X61214000Y-28194000D03*
G04 #@! TO.P,HDR1,4*
G04 #@! TO.N,HDR1-4*
X63754000Y-28194000D03*
G04 #@! TO.P,HDR1,5*
G04 #@! TO.N,VCCIO_3*
X61214000Y-30734000D03*
G04 #@! TO.P,HDR1,6*
G04 #@! TO.N,HDR1-6*
X63754000Y-30734000D03*
G04 #@! TO.P,HDR1,7*
G04 #@! TO.N,HDR1-7*
X61214000Y-33274000D03*
G04 #@! TO.P,HDR1,8*
G04 #@! TO.N,HDR1-8*
X63754000Y-33274000D03*
G04 #@! TO.P,HDR1,9*
G04 #@! TO.N,HDR1-9*
X61214000Y-35814000D03*
G04 #@! TO.P,HDR1,10*
G04 #@! TO.N,HDR1-10*
X63754000Y-35814000D03*
G04 #@! TO.P,HDR1,11*
G04 #@! TO.N,HDR1-11*
X61214000Y-38354000D03*
G04 #@! TO.P,HDR1,12*
G04 #@! TO.N,HDR1-12*
X63754000Y-38354000D03*
G04 #@! TO.P,HDR1,13*
G04 #@! TO.N,HDR1-13*
X61214000Y-40894000D03*
G04 #@! TO.P,HDR1,14*
G04 #@! TO.N,HDR1-14*
X63754000Y-40894000D03*
G04 #@! TO.P,HDR1,15*
G04 #@! TO.N,GND*
X61214000Y-43434000D03*
G04 #@! TO.P,HDR1,16*
G04 #@! TO.N,HDR1-16*
X63754000Y-43434000D03*
G04 #@! TO.P,HDR1,17*
G04 #@! TO.N,HDR1-17*
X61214000Y-45974000D03*
G04 #@! TO.P,HDR1,18*
G04 #@! TO.N,HDR1-18*
X63754000Y-45974000D03*
G04 #@! TO.P,HDR1,19*
G04 #@! TO.N,HDR1-19*
X61214000Y-48514000D03*
G04 #@! TO.P,HDR1,20*
G04 #@! TO.N,HDR1-20*
X63754000Y-48514000D03*
G04 #@! TD*
D15*
G04 #@! TO.P,SH2,1*
G04 #@! TO.N,GND*
X51054000Y-9779000D03*
G04 #@! TO.P,SH2,2*
G04 #@! TO.N,Net-(JP6-Pad2)*
X51054000Y-10414000D03*
G04 #@! TD*
D27*
G04 #@! TO.P,SW3,1*
G04 #@! TO.N,Net-(RN6-Pad4)*
X57658000Y-39878000D03*
D28*
G04 #@! TO.P,SW3,2*
G04 #@! TO.N,Net-(RN6-Pad3)*
X57658000Y-37338000D03*
G04 #@! TO.P,SW3,3*
G04 #@! TO.N,Net-(RN6-Pad2)*
X57658000Y-34798000D03*
G04 #@! TO.P,SW3,4*
G04 #@! TO.N,Net-(RN6-Pad1)*
X57658000Y-32258000D03*
G04 #@! TO.P,SW3,5*
G04 #@! TO.N,DIPSW4*
X50038000Y-32258000D03*
G04 #@! TO.P,SW3,6*
G04 #@! TO.N,DIPSW3*
X50038000Y-34798000D03*
G04 #@! TO.P,SW3,7*
G04 #@! TO.N,DIPSW2*
X50038000Y-37338000D03*
G04 #@! TO.P,SW3,8*
G04 #@! TO.N,DIPSW1*
X50038000Y-39878000D03*
G04 #@! TD*
D29*
G04 #@! TO.P,SH5,1*
G04 #@! TO.N,Net-(JP1-Pad2)*
X26670000Y-13970000D03*
G04 #@! TO.P,SH5,2*
G04 #@! TO.N,BCM17*
X26035000Y-13970000D03*
G04 #@! TD*
G04 #@! TO.P,SH6,1*
G04 #@! TO.N,Net-(JP5-Pad2)*
X26162000Y-8382000D03*
G04 #@! TO.P,SH6,2*
G04 #@! TO.N,BCM22*
X26797000Y-8382000D03*
G04 #@! TD*
D13*
G04 #@! TO.P,REF\002A\002A,1*
G04 #@! TO.N,+3.3V*
X11430000Y-29718000D03*
G04 #@! TD*
D25*
G04 #@! TO.P,R7,1*
G04 #@! TO.N,GND*
X21324000Y-14122400D03*
G04 #@! TO.P,R7,2*
G04 #@! TO.N,Net-(R7-Pad2)*
X19824000Y-14122400D03*
G04 #@! TD*
D22*
G04 #@! TO.P,C6,1*
G04 #@! TO.N,VCCIO_3*
X52213000Y-32131000D03*
G04 #@! TO.P,C6,2*
G04 #@! TO.N,GND*
X54213000Y-32131000D03*
G04 #@! TD*
D25*
G04 #@! TO.P,R9,1*
G04 #@! TO.N,VCCIO_3*
X57416000Y-23190200D03*
G04 #@! TO.P,R9,2*
G04 #@! TO.N,Net-(R8-Pad1)*
X58916000Y-23190200D03*
G04 #@! TD*
D13*
G04 #@! TO.P,REF\002A\002A,1*
G04 #@! TO.N,VCCIO_3*
X54737000Y-24130000D03*
G04 #@! TD*
D15*
G04 #@! TO.P,SH1,1*
G04 #@! TO.N,Net-(JP4-Pad2)*
X14478000Y-10668000D03*
G04 #@! TO.P,SH1,2*
G04 #@! TO.N,+5V-RPi*
X14478000Y-10033000D03*
G04 #@! TD*
D30*
G04 #@! TO.P,JP5,1*
G04 #@! TO.N,BCM22*
X26771600Y-9398000D03*
G04 #@! TO.P,JP5,2*
G04 #@! TO.N,Net-(JP5-Pad2)*
X26060400Y-9398000D03*
G04 #@! TD*
G04 #@! TO.P,JP1,1*
G04 #@! TO.N,BCM17*
X26060400Y-12954000D03*
G04 #@! TO.P,JP1,2*
G04 #@! TO.N,Net-(JP1-Pad2)*
X26771600Y-12954000D03*
G04 #@! TD*
D31*
G04 #@! TO.P,U8,4*
G04 #@! TO.N,VCCIO_3*
X51516280Y-26990040D03*
D32*
G04 #@! TO.P,U8,2*
X58120280Y-26990040D03*
G04 #@! TO.P,U8,3*
G04 #@! TO.N,+5V*
X58120280Y-29276040D03*
G04 #@! TO.P,U8,1*
G04 #@! TO.N,Net-(R8-Pad1)*
X58120280Y-24704040D03*
G04 #@! TD*
D33*
G04 #@! TO.P,JP2,1*
G04 #@! TO.N,+5V*
X41402000Y-54102000D03*
D34*
G04 #@! TO.P,JP2,2*
G04 #@! TO.N,Net-(GR4-Pad3)*
X41402000Y-51562000D03*
G04 #@! TO.P,JP2,3*
G04 #@! TO.N,+3.3V*
X41402000Y-49022000D03*
G04 #@! TD*
D33*
G04 #@! TO.P,JP3,1*
G04 #@! TO.N,+5V*
X36830000Y-54102000D03*
D34*
G04 #@! TO.P,JP3,2*
G04 #@! TO.N,Net-(GR5-Pad3)*
X36830000Y-51562000D03*
G04 #@! TO.P,JP3,3*
G04 #@! TO.N,+3.3V*
X36830000Y-49022000D03*
G04 #@! TD*
D33*
G04 #@! TO.P,JP4,1*
G04 #@! TO.N,Net-(CON1-Pad1)*
X14478000Y-14224000D03*
D34*
G04 #@! TO.P,JP4,2*
G04 #@! TO.N,Net-(JP4-Pad2)*
X14478000Y-11684000D03*
G04 #@! TO.P,JP4,3*
G04 #@! TO.N,+5V-RPi*
X14478000Y-9144000D03*
G04 #@! TD*
D33*
G04 #@! TO.P,JP6,1*
G04 #@! TO.N,VCCIO_3*
X51054000Y-13970000D03*
D34*
G04 #@! TO.P,JP6,2*
G04 #@! TO.N,Net-(JP6-Pad2)*
X51054000Y-11430000D03*
G04 #@! TO.P,JP6,3*
G04 #@! TO.N,GND*
X51054000Y-8890000D03*
G04 #@! TD*
G04 #@! TO.P,PM2,9*
G04 #@! TO.N,PM2-B3*
X51816000Y-46228000D03*
D33*
G04 #@! TO.P,PM2,1*
G04 #@! TO.N,PM2-A1*
X56896000Y-43688000D03*
D34*
G04 #@! TO.P,PM2,3*
G04 #@! TO.N,PM2-A3*
X51816000Y-43688000D03*
G04 #@! TO.P,PM2,5*
G04 #@! TO.N,GND*
X46736000Y-43688000D03*
G04 #@! TO.P,PM2,7*
G04 #@! TO.N,PM2-B1*
X56896000Y-46228000D03*
G04 #@! TO.P,PM2,11*
G04 #@! TO.N,GND*
X46736000Y-46228000D03*
G04 #@! TO.P,PM2,10*
G04 #@! TO.N,PM2-B4*
X49276000Y-46228000D03*
G04 #@! TO.P,PM2,2*
G04 #@! TO.N,PM2-A2*
X54356000Y-43688000D03*
G04 #@! TO.P,PM2,4*
G04 #@! TO.N,PM2-A4*
X49276000Y-43688000D03*
G04 #@! TO.P,PM2,6*
G04 #@! TO.N,Net-(GR4-Pad3)*
X44196000Y-43688000D03*
G04 #@! TO.P,PM2,8*
G04 #@! TO.N,PM2-B2*
X54356000Y-46228000D03*
G04 #@! TO.P,PM2,12*
G04 #@! TO.N,Net-(GR4-Pad3)*
X44196000Y-46228000D03*
G04 #@! TD*
G04 #@! TO.P,PM3,9*
G04 #@! TO.N,PM3-B3*
X28956000Y-46228000D03*
D33*
G04 #@! TO.P,PM3,1*
G04 #@! TO.N,PM3-A1*
X34036000Y-43688000D03*
D34*
G04 #@! TO.P,PM3,3*
G04 #@! TO.N,PM3-A3*
X28956000Y-43688000D03*
G04 #@! TO.P,PM3,5*
G04 #@! TO.N,GND*
X23876000Y-43688000D03*
G04 #@! TO.P,PM3,7*
G04 #@! TO.N,PM3-B1*
X34036000Y-46228000D03*
G04 #@! TO.P,PM3,11*
G04 #@! TO.N,GND*
X23876000Y-46228000D03*
G04 #@! TO.P,PM3,10*
G04 #@! TO.N,PM3-B4*
X26416000Y-46228000D03*
G04 #@! TO.P,PM3,2*
G04 #@! TO.N,PM3-A2*
X31496000Y-43688000D03*
G04 #@! TO.P,PM3,4*
G04 #@! TO.N,PM3-A4*
X26416000Y-43688000D03*
G04 #@! TO.P,PM3,6*
G04 #@! TO.N,Net-(GR5-Pad3)*
X21336000Y-43688000D03*
G04 #@! TO.P,PM3,8*
G04 #@! TO.N,PM3-B2*
X31496000Y-46228000D03*
G04 #@! TO.P,PM3,12*
G04 #@! TO.N,Net-(GR5-Pad3)*
X21336000Y-46228000D03*
G04 #@! TD*
D11*
G04 #@! TO.P,SATA1,1*
G04 #@! TO.N,GND*
X61250000Y-18780000D03*
G04 #@! TO.P,SATA1,2*
G04 #@! TO.N,/SATA1_A_P*
X62750000Y-17510000D03*
G04 #@! TO.P,SATA1,3*
G04 #@! TO.N,/SATA1_A_N*
X62750000Y-16240000D03*
G04 #@! TO.P,SATA1,4*
G04 #@! TO.N,GND*
X61250000Y-14970000D03*
G04 #@! TO.P,SATA1,5*
G04 #@! TO.N,/SATA1_B_N*
X62750000Y-13700000D03*
G04 #@! TO.P,SATA1,6*
G04 #@! TO.N,/SATA1_B_P*
X62750000Y-12430000D03*
G04 #@! TO.P,SATA1,7*
G04 #@! TO.N,Net-(JP6-Pad2)*
X61250000Y-11160000D03*
D12*
G04 #@! TO.P,SATA1,P1*
G04 #@! TO.N,N/C*
X62750000Y-21240000D03*
G04 #@! TO.P,SATA1,P2*
X63750000Y-8410000D03*
G04 #@! TD*
D35*
G04 #@! TO.P,R8,1*
G04 #@! TO.N,Net-(R8-Pad1)*
X59207400Y-20298400D03*
G04 #@! TO.P,R8,2*
G04 #@! TO.N,GND*
X59207400Y-17598400D03*
G04 #@! TD*
D36*
G04 #@! TO.P,RN12,1*
G04 #@! TO.N,BCM10_MOSI*
X33852000Y-7532000D03*
G04 #@! TO.P,RN12,2*
G04 #@! TO.N,BCM9_MISO*
X34652000Y-7532000D03*
G04 #@! TO.P,RN12,3*
G04 #@! TO.N,BCM25*
X35452000Y-7532000D03*
G04 #@! TO.P,RN12,4*
G04 #@! TO.N,BCM11_SCLK*
X36252000Y-7532000D03*
G04 #@! TO.P,RN12,5*
G04 #@! TO.N,Net-(RN12-Pad5)*
X36252000Y-9232000D03*
G04 #@! TO.P,RN12,6*
G04 #@! TO.N,Net-(RN12-Pad6)*
X35452000Y-9232000D03*
G04 #@! TO.P,RN12,7*
G04 #@! TO.N,Net-(RN12-Pad7)*
X34652000Y-9232000D03*
G04 #@! TO.P,RN12,8*
G04 #@! TO.N,Net-(RN12-Pad8)*
X33852000Y-9232000D03*
G04 #@! TD*
D37*
G04 #@! TO.P,GR2,3*
G04 #@! TO.N,+3.3V*
X9398000Y-52308760D03*
G04 #@! TO.P,GR2,2*
G04 #@! TO.N,GR2-IO2*
X9398000Y-50307240D03*
G04 #@! TO.P,GR2,4*
G04 #@! TO.N,GND*
X9398000Y-54307740D03*
G04 #@! TO.P,GR2,1*
G04 #@! TO.N,GR2-IO1*
X9398000Y-48308260D03*
G04 #@! TD*
G04 #@! TO.P,GR3,3*
G04 #@! TO.N,+3.3V*
X2540000Y-44688760D03*
G04 #@! TO.P,GR3,2*
G04 #@! TO.N,GR3-IO2*
X2540000Y-42687240D03*
G04 #@! TO.P,GR3,4*
G04 #@! TO.N,GND*
X2540000Y-46687740D03*
G04 #@! TO.P,GR3,1*
G04 #@! TO.N,GR3-IO1*
X2540000Y-40688260D03*
G04 #@! TD*
G04 #@! TO.P,GR1,3*
G04 #@! TO.N,+3.3V*
X17272000Y-52308760D03*
G04 #@! TO.P,GR1,2*
G04 #@! TO.N,GR1-IO2*
X17272000Y-50307240D03*
G04 #@! TO.P,GR1,4*
G04 #@! TO.N,GND*
X17272000Y-54307740D03*
G04 #@! TO.P,GR1,1*
G04 #@! TO.N,GR1-IO1*
X17272000Y-48308260D03*
G04 #@! TD*
G04 #@! TO.P,GR5,3*
G04 #@! TO.N,Net-(GR5-Pad3)*
X26685240Y-51816000D03*
G04 #@! TO.P,GR5,2*
G04 #@! TO.N,PM3-B2*
X28686760Y-51816000D03*
G04 #@! TO.P,GR5,4*
G04 #@! TO.N,GND*
X24686260Y-51816000D03*
G04 #@! TO.P,GR5,1*
G04 #@! TO.N,PM3-B1*
X30685740Y-51816000D03*
G04 #@! TD*
G04 #@! TO.P,GR4,3*
G04 #@! TO.N,Net-(GR4-Pad3)*
X49545240Y-51816000D03*
G04 #@! TO.P,GR4,2*
G04 #@! TO.N,PM2-B2*
X51546760Y-51816000D03*
G04 #@! TO.P,GR4,4*
G04 #@! TO.N,GND*
X47546260Y-51816000D03*
G04 #@! TO.P,GR4,1*
G04 #@! TO.N,PM2-B1*
X53545740Y-51816000D03*
G04 #@! TD*
D38*
G04 #@! TO.N,+3.3V*
X34655760Y-30434280D03*
D39*
X44259500Y-9017000D03*
X46037500Y-9588500D03*
D38*
X41859200Y-20828000D03*
D39*
X45923200Y-33731200D03*
X44399200Y-32816800D03*
X40030400Y-33578800D03*
X39014400Y-38404800D03*
X35626040Y-32639000D03*
D38*
X37056361Y-25680937D03*
X39456359Y-28080937D03*
D39*
X29260800Y-10109200D03*
X30886400Y-12242800D03*
D38*
X40301063Y-24036221D03*
D39*
X39420799Y-9728199D03*
D38*
X40298782Y-20838270D03*
X43456358Y-20791517D03*
D39*
X18884900Y-25948640D03*
X28343859Y-24361141D03*
X18900140Y-21960840D03*
D38*
X34656359Y-26480936D03*
D39*
X28346400Y-19542760D03*
X18884900Y-36360100D03*
X18879822Y-15552420D03*
X18883341Y-17160590D03*
D38*
X34656361Y-21591504D03*
X35411644Y-20836219D03*
X36301076Y-22436219D03*
X37856365Y-26480918D03*
D39*
G04 #@! TO.N,GND*
X54610000Y-30861000D03*
D38*
X42654220Y-28831540D03*
D39*
X36830000Y-18923000D03*
X43053000Y-18135600D03*
X48818800Y-24282400D03*
X49580800Y-24282400D03*
X41910000Y-9906000D03*
D38*
X42672000Y-22428200D03*
D39*
X47167800Y-17475200D03*
X46126400Y-17475200D03*
X39674800Y-17475200D03*
X41402000Y-38404800D03*
X45872400Y-34645600D03*
X43230800Y-32461200D03*
X35864800Y-36728400D03*
X36525200Y-36220400D03*
X36807140Y-32539940D03*
D38*
X37056360Y-24880936D03*
X41066364Y-27260925D03*
D39*
X30937200Y-13157200D03*
D40*
X12192000Y-16764000D03*
X6350000Y-33274000D03*
X12446000Y-38862000D03*
X13716000Y-25908000D03*
X13385800Y-21285200D03*
X40335200Y-47244000D03*
D38*
X41055542Y-24790603D03*
X41101062Y-25636219D03*
X41101060Y-26436225D03*
D40*
X15240000Y-45466000D03*
D39*
X53187600Y-37795200D03*
X41046398Y-8382000D03*
D38*
X41101076Y-20836220D03*
D39*
X43053000Y-18999200D03*
X28331160Y-15617831D03*
X40640000Y-14224000D03*
D38*
X45056352Y-24880927D03*
D39*
X22174200Y-22098000D03*
X21422360Y-37406580D03*
X22204680Y-15501620D03*
X24996140Y-19497040D03*
X25915620Y-25463500D03*
X30632400Y-25933398D03*
X28338780Y-21960840D03*
D38*
X33856716Y-23281337D03*
X33856360Y-28880936D03*
D39*
X28308300Y-36332160D03*
X28346400Y-17150080D03*
X18882360Y-24366220D03*
X18887440Y-19545300D03*
D38*
X39456361Y-27280937D03*
X40266360Y-27260936D03*
X40266620Y-26436320D03*
X39458900Y-26436320D03*
X40261540Y-25633840D03*
X39453820Y-25633680D03*
D39*
X43180000Y-36118800D03*
G04 #@! TO.N,+1.2V*
X34544000Y-32816800D03*
D38*
X37856362Y-24880924D03*
X41901069Y-27236213D03*
X41901075Y-24836220D03*
X38691063Y-27236224D03*
X45101064Y-23236213D03*
G04 #@! TO.N,Net-(C32-Pad1)*
X41056361Y-28880936D03*
G04 #@! TO.N,Net-(C32-Pad2)*
X40256360Y-28880936D03*
G04 #@! TO.N,Net-(C33-Pad1)*
X40256360Y-22480936D03*
G04 #@! TO.N,Net-(C33-Pad2)*
X40256361Y-23191504D03*
D39*
G04 #@! TO.N,BCM2_SDA*
X22733000Y-18288000D03*
X32105600Y-19405600D03*
G04 #@! TO.N,BCM4_GPCLK0*
X36118800Y-14376408D03*
G04 #@! TO.N,BCM17*
X24616410Y-12957810D03*
G04 #@! TO.N,BCM23*
X38079680Y-16951960D03*
D38*
X38611644Y-21636219D03*
D39*
G04 #@! TO.N,BCM7_CE1*
X40386000Y-15951200D03*
G04 #@! TO.N,VCCIO_3*
X48133000Y-28575000D03*
X47142400Y-28549600D03*
X46101000Y-22021800D03*
D38*
X41901076Y-26436221D03*
X41901063Y-25636224D03*
G04 #@! TO.N,Net-(D1-Pad1)*
X37056361Y-28880936D03*
D39*
G04 #@! TO.N,SD_DQ0*
X19728182Y-16362680D03*
D38*
X34611644Y-20036220D03*
D39*
G04 #@! TO.N,SD_DQ1*
X21595091Y-17883180D03*
D38*
X34656360Y-20791504D03*
D39*
G04 #@! TO.N,SD_DQ2*
X21082000Y-18796006D03*
D38*
X35411644Y-22436220D03*
G04 #@! TO.N,SD_DQ3*
X34656396Y-22393989D03*
D39*
X19832320Y-20360640D03*
G04 #@! TO.N,SD_DQ4*
X20835620Y-21104858D03*
D38*
X35411644Y-23236220D03*
D39*
G04 #@! TO.N,SD_DQ5*
X23776940Y-22722838D03*
D38*
X34611644Y-23236221D03*
D39*
G04 #@! TO.N,SD_DQ6*
X22326600Y-23495004D03*
D38*
X35411645Y-24036220D03*
D39*
G04 #@! TO.N,SD_DQ7*
X21971000Y-25146000D03*
D38*
X34611643Y-24036219D03*
D39*
G04 #@! TO.N,SD_LDQM*
X21031200Y-26771600D03*
D38*
X35411644Y-24836219D03*
D39*
G04 #@! TO.N,~SD_WE*
X19050000Y-27533600D03*
D38*
X34611644Y-24836220D03*
D39*
G04 #@! TO.N,~SD_CS*
X19050000Y-29921200D03*
D38*
X35411644Y-25636219D03*
G04 #@! TO.N,SD_BS0*
X34611656Y-25636222D03*
D39*
X20335240Y-30744160D03*
G04 #@! TO.N,SD_BS1*
X19050000Y-31623000D03*
D38*
X35411643Y-26436221D03*
D39*
G04 #@! TO.N,SD_A10*
X19829780Y-32349440D03*
D38*
X34611643Y-28036221D03*
D39*
G04 #@! TO.N,SD_A0*
X18996660Y-33154620D03*
D38*
X35411644Y-28036219D03*
D39*
G04 #@! TO.N,SD_A1*
X19806920Y-33954718D03*
D38*
X34611644Y-28836219D03*
G04 #@! TO.N,SD_A2*
X35456361Y-28880936D03*
D39*
X18961192Y-34764070D03*
D38*
G04 #@! TO.N,SD_A3*
X35456365Y-29680920D03*
D39*
X19822160Y-35549838D03*
D38*
G04 #@! TO.N,SD_A12*
X34611656Y-27236225D03*
D39*
X30540960Y-29949142D03*
D38*
G04 #@! TO.N,GR1-IO2*
X39456360Y-29591504D03*
G04 #@! TO.N,GR1-IO1*
X38656359Y-30480936D03*
G04 #@! TO.N,GR2-IO2*
X37856361Y-30480936D03*
G04 #@! TO.N,GR2-IO1*
X37056359Y-30480937D03*
G04 #@! TO.N,GR3-IO2*
X36256361Y-30480937D03*
G04 #@! TO.N,GR3-IO1*
X35456360Y-30480935D03*
D39*
G04 #@! TO.N,HDR1-12*
X49276000Y-28575000D03*
D38*
X44301076Y-28036221D03*
D39*
G04 #@! TO.N,HDR1-14*
X50114200Y-29565600D03*
D38*
X44301076Y-28836220D03*
G04 #@! TO.N,DIPSW4*
X44301077Y-30436221D03*
G04 #@! TO.N,DIPSW3*
X43501077Y-30436221D03*
G04 #@! TO.N,DIPSW2*
X42701076Y-30436221D03*
G04 #@! TO.N,DIPSW1*
X41883822Y-30452237D03*
D39*
G04 #@! TO.N,Net-(R7-Pad2)*
X17424400Y-12801600D03*
D38*
G04 #@! TO.N,Net-(JP1-Pad2)*
X36256359Y-23191504D03*
D39*
X27584400Y-12954000D03*
G04 #@! TO.N,Net-(JP5-Pad2)*
X25196800Y-9906000D03*
D38*
X37011644Y-21636219D03*
D39*
G04 #@! TO.N,Net-(RN12-Pad6)*
X33629600Y-10820400D03*
G04 #@! TO.N,Net-(RN12-Pad5)*
X39420800Y-12242800D03*
G04 #@! TO.N,Net-(RN12-Pad7)*
X33223199Y-15494000D03*
X33274000Y-12192000D03*
X38735000Y-14351000D03*
D38*
X36239860Y-20809269D03*
D39*
G04 #@! TO.N,Net-(RN12-Pad8)*
X30886400Y-10972800D03*
D38*
X37056359Y-20791504D03*
G04 #@! TD*
D41*
G04 #@! TO.N,+3.3V*
X37045000Y-10649000D02*
X38499998Y-10649000D01*
X38499998Y-10649000D02*
X39420799Y-9728199D01*
X37045000Y-11449000D02*
X37045000Y-10649000D01*
X44438000Y-9969500D02*
X44438000Y-9195500D01*
X44438000Y-9195500D02*
X44259500Y-9017000D01*
D42*
X42158920Y-19860260D02*
X42090340Y-19860260D01*
X42090340Y-19860260D02*
X41986200Y-19964400D01*
X41986200Y-19964400D02*
X41986200Y-20701000D01*
X41986200Y-20701000D02*
X41859200Y-20828000D01*
X44091860Y-19857720D02*
X44091860Y-20156015D01*
X44091860Y-20156015D02*
X43456358Y-20791517D01*
X47162720Y-19851500D02*
X48701960Y-19851500D01*
X45633640Y-19847560D02*
X47158780Y-19847560D01*
X47158780Y-19847560D02*
X47162720Y-19851500D01*
X44091860Y-19857720D02*
X45623480Y-19857720D01*
X45623480Y-19857720D02*
X45633640Y-19847560D01*
X40629840Y-19860260D02*
X42158920Y-19860260D01*
X39093140Y-19870420D02*
X40619680Y-19870420D01*
X40619680Y-19870420D02*
X40629840Y-19860260D01*
X39093140Y-20398740D02*
X39532670Y-20838270D01*
X39532670Y-20838270D02*
X40298782Y-20838270D01*
X39093140Y-19870420D02*
X39093140Y-20398740D01*
X45059600Y-33731200D02*
X45923200Y-33731200D01*
X45059600Y-33731200D02*
X45059600Y-33477200D01*
X45059600Y-33477200D02*
X44399200Y-32816800D01*
X43484800Y-33731200D02*
X44399200Y-32816800D01*
X39483600Y-37490400D02*
X39483600Y-37935600D01*
X39483600Y-37935600D02*
X39014400Y-38404800D01*
D41*
X36522660Y-33821940D02*
X36522660Y-33535620D01*
X36522660Y-33535620D02*
X35626040Y-32639000D01*
X34968180Y-33822640D02*
X34968180Y-33296860D01*
X34968180Y-33296860D02*
X35626040Y-32639000D01*
X37805360Y-21965920D02*
X37335061Y-22436219D01*
X37335061Y-22436219D02*
X36301076Y-22436219D01*
X36253420Y-25570180D02*
X36945604Y-25570180D01*
X36945604Y-25570180D02*
X37056361Y-25680937D01*
X35834320Y-27063700D02*
X35239123Y-27063700D01*
X35239123Y-27063700D02*
X34656359Y-26480936D01*
X36073980Y-26824040D02*
X35834320Y-27063700D01*
X36083240Y-26824040D02*
X36073980Y-26824040D01*
X40306560Y-28056840D02*
X39480456Y-28056840D01*
X39480456Y-28056840D02*
X39456359Y-28080937D01*
X38666420Y-26397080D02*
X37940203Y-26397080D01*
X37940203Y-26397080D02*
X37856365Y-26480918D01*
D43*
X19812000Y-21832000D02*
X19655220Y-21988780D01*
X19655220Y-21988780D02*
X18928080Y-21988780D01*
X18928080Y-21988780D02*
X18900140Y-21960840D01*
X19930680Y-36553140D02*
X19077940Y-36553140D01*
X19077940Y-36553140D02*
X18884900Y-36360100D01*
X19812000Y-17538000D02*
X19260751Y-17538000D01*
X19260751Y-17538000D02*
X18883341Y-17160590D01*
X19824000Y-15494000D02*
X18938242Y-15494000D01*
X18938242Y-15494000D02*
X18879822Y-15552420D01*
X27384440Y-19484340D02*
X28287980Y-19484340D01*
X28287980Y-19484340D02*
X28346400Y-19542760D01*
X19812000Y-25896000D02*
X18937540Y-25896000D01*
X18937540Y-25896000D02*
X18884900Y-25948640D01*
X27420000Y-24638000D02*
X28067000Y-24638000D01*
X28067000Y-24638000D02*
X28343859Y-24361141D01*
X28354018Y-24371300D02*
X28343859Y-24361141D01*
X28417520Y-24371300D02*
X28354018Y-24371300D01*
D42*
X41402000Y-49957000D02*
X41390000Y-49969000D01*
X41402000Y-49022000D02*
X41402000Y-49957000D01*
X36830000Y-49979000D02*
X36830000Y-49022000D01*
D44*
G04 #@! TO.N,+5V*
X58120280Y-29276040D02*
X58120280Y-30307280D01*
X58120280Y-30307280D02*
X59309000Y-31496000D01*
X59309000Y-31496000D02*
X59309000Y-48895000D01*
X59309000Y-48895000D02*
X54102000Y-54102000D01*
X54102000Y-54102000D02*
X41402000Y-54102000D01*
D45*
G04 #@! TO.N,GND*
X59207400Y-17598400D02*
X60068400Y-17598400D01*
X60068400Y-17598400D02*
X61250000Y-18780000D01*
D42*
X54610000Y-30861000D02*
X54610000Y-30988000D01*
X54610000Y-30988000D02*
X54213000Y-31385000D01*
X54213000Y-31385000D02*
X54213000Y-32131000D01*
D43*
X43322240Y-29530740D02*
X43322240Y-29499560D01*
X43322240Y-29499560D02*
X42654220Y-28831540D01*
D42*
X49199800Y-25298400D02*
X48818800Y-24917400D01*
X48818800Y-24917400D02*
X48818800Y-24282400D01*
X49199800Y-25982800D02*
X49199800Y-25298400D01*
X47574200Y-25982800D02*
X49199800Y-25982800D01*
X42158920Y-18360260D02*
X42828340Y-18360260D01*
X43053000Y-18135600D02*
X43053000Y-18999200D01*
X42828340Y-18360260D02*
X43053000Y-18135600D01*
X49580800Y-24282400D02*
X48818800Y-24282400D01*
X48995460Y-24105740D02*
X48818800Y-24282400D01*
X48995460Y-24105740D02*
X48995460Y-23088600D01*
D46*
X40629840Y-18360260D02*
X42158920Y-18360260D01*
D45*
X51054000Y-9779000D02*
X51054000Y-8890000D01*
D41*
X42938000Y-9969500D02*
X41973500Y-9969500D01*
X41973500Y-9969500D02*
X41910000Y-9906000D01*
D42*
X48984600Y-21523960D02*
X48984600Y-23077740D01*
X48984600Y-23077740D02*
X48995460Y-23088600D01*
X43189460Y-21783040D02*
X43189460Y-21910740D01*
X43189460Y-21910740D02*
X42672000Y-22428200D01*
X42722800Y-20624800D02*
X43053000Y-20294600D01*
X43189460Y-21599460D02*
X42722800Y-21132800D01*
X42722800Y-21132800D02*
X42722800Y-20624800D01*
X43053000Y-20294600D02*
X43053000Y-18999200D01*
X43189460Y-21783040D02*
X43189460Y-21599460D01*
X47162720Y-18351500D02*
X48701960Y-18351500D01*
X47162720Y-18351500D02*
X47162720Y-17480280D01*
X47162720Y-17480280D02*
X47167800Y-17475200D01*
X45633640Y-18347560D02*
X45633640Y-17967960D01*
X45633640Y-17967960D02*
X46126400Y-17475200D01*
X44091860Y-18357720D02*
X43694480Y-18357720D01*
X43694480Y-18357720D02*
X43053000Y-18999200D01*
X45633640Y-18347560D02*
X44102020Y-18347560D01*
X44102020Y-18347560D02*
X44091860Y-18357720D01*
X47162720Y-18351500D02*
X45637580Y-18351500D01*
X45637580Y-18351500D02*
X45633640Y-18347560D01*
X40629840Y-18360260D02*
X39103300Y-18360260D01*
X39103300Y-18360260D02*
X39093140Y-18370420D01*
D41*
X39093140Y-18370420D02*
X39093140Y-18056860D01*
D42*
X39093140Y-18056860D02*
X39674800Y-17475200D01*
X45059600Y-35231200D02*
X45286800Y-35231200D01*
X45286800Y-35231200D02*
X45872400Y-34645600D01*
X43484800Y-35231200D02*
X43484800Y-35814000D01*
X43484800Y-35814000D02*
X43180000Y-36118800D01*
X40983600Y-37490400D02*
X40983600Y-37986400D01*
X40983600Y-37986400D02*
X41402000Y-38404800D01*
X34968180Y-35322640D02*
X34968180Y-35831780D01*
X34968180Y-35831780D02*
X35864800Y-36728400D01*
X36522660Y-35321940D02*
X36522660Y-36217860D01*
D41*
X36522660Y-36217860D02*
X36525200Y-36220400D01*
D42*
X34968180Y-35322640D02*
X36521960Y-35322640D01*
D41*
X36521960Y-35322640D02*
X36522660Y-35321940D01*
D42*
X33411160Y-35306700D02*
X34952240Y-35306700D01*
D41*
X34952240Y-35306700D02*
X34968180Y-35322640D01*
X37805360Y-23465920D02*
X37805360Y-24131936D01*
X37805360Y-24131936D02*
X37056360Y-24880936D01*
X36253420Y-24070180D02*
X36253420Y-24077996D01*
X36253420Y-24077996D02*
X37056360Y-24880936D01*
X45056352Y-24880927D02*
X45912813Y-24880927D01*
X45912813Y-24880927D02*
X45958760Y-24834980D01*
X44277280Y-24968200D02*
X44969079Y-24968200D01*
X44969079Y-24968200D02*
X45056352Y-24880927D01*
X44267820Y-26512520D02*
X44267820Y-24977660D01*
X44267820Y-24977660D02*
X44277280Y-24968200D01*
X41806560Y-28056840D02*
X41806560Y-28001121D01*
X41806560Y-28001121D02*
X41066364Y-27260925D01*
X38666420Y-24897080D02*
X38717220Y-24897080D01*
X38717220Y-24897080D02*
X39453820Y-25633680D01*
D43*
X21324000Y-15494000D02*
X21324000Y-14122400D01*
X53180880Y-37105440D02*
X53180880Y-37788480D01*
X53180880Y-37788480D02*
X53187600Y-37795200D01*
X53180880Y-36305440D02*
X53180880Y-37105440D01*
X53180880Y-35505440D02*
X53180880Y-36305440D01*
X53180880Y-34705440D02*
X53180880Y-35505440D01*
X21324000Y-22098000D02*
X22174200Y-22098000D01*
X21430680Y-36553140D02*
X21430680Y-37398260D01*
X21430680Y-37398260D02*
X21422360Y-37406580D01*
X19812000Y-19038000D02*
X19394740Y-19038000D01*
X19394740Y-19038000D02*
X18887440Y-19545300D01*
X21324000Y-15494000D02*
X22197060Y-15494000D01*
X22197060Y-15494000D02*
X22204680Y-15501620D01*
X25884440Y-19484340D02*
X25008840Y-19484340D01*
X25008840Y-19484340D02*
X24996140Y-19497040D01*
X19812000Y-24396000D02*
X18912140Y-24396000D01*
X18912140Y-24396000D02*
X18882360Y-24366220D01*
X25920000Y-24638000D02*
X25920000Y-25459120D01*
X25920000Y-25459120D02*
X25915620Y-25463500D01*
D45*
G04 #@! TO.N,+5V-RPi*
X14478000Y-10033000D02*
X14478000Y-9144000D01*
D41*
G04 #@! TO.N,+1.2V*
X33411160Y-33806700D02*
X33554100Y-33806700D01*
X33554100Y-33806700D02*
X34544000Y-32816800D01*
X34544000Y-32816800D02*
X34544000Y-32649160D01*
X34544000Y-32649160D02*
X34554160Y-32639000D01*
X44689460Y-21783040D02*
X44689460Y-21839620D01*
X44689460Y-21839620D02*
X45101064Y-22251224D01*
X45101064Y-22251224D02*
X45101064Y-23236213D01*
X37868860Y-28190760D02*
X37868860Y-28058427D01*
X37868860Y-28058427D02*
X38691063Y-27236224D01*
X45958760Y-23334980D02*
X45199831Y-23334980D01*
X45199831Y-23334980D02*
X45101064Y-23236213D01*
X44435460Y-23375620D02*
X44961657Y-23375620D01*
X44961657Y-23375620D02*
X45101064Y-23236213D01*
X42777280Y-24968200D02*
X42033055Y-24968200D01*
X42033055Y-24968200D02*
X41901075Y-24836220D01*
X42767820Y-26512520D02*
X42624762Y-26512520D01*
X42624762Y-26512520D02*
X41901069Y-27236213D01*
D45*
G04 #@! TO.N,PM2-B2*
X54356000Y-46228000D02*
X54356000Y-49006760D01*
X54356000Y-49006760D02*
X51546760Y-51816000D01*
G04 #@! TO.N,PM2-B1*
X56896000Y-48465740D02*
X56896000Y-46228000D01*
X53545740Y-51816000D02*
X56896000Y-48465740D01*
G04 #@! TO.N,PM3-B2*
X31496000Y-46228000D02*
X31496000Y-49006760D01*
X31496000Y-49006760D02*
X28686760Y-51816000D01*
G04 #@! TO.N,PM3-B1*
X34036000Y-48465740D02*
X34036000Y-46228000D01*
X30685740Y-51816000D02*
X34036000Y-48465740D01*
G04 #@! TO.N,Net-(C32-Pad1)*
X41198800Y-30937200D02*
X41198800Y-30231780D01*
X41198800Y-30231780D02*
X41773540Y-29657040D01*
X41538400Y-31276800D02*
X41198800Y-30937200D01*
X41538400Y-32004000D02*
X41538400Y-31276800D01*
D41*
X41773540Y-29657040D02*
X41773540Y-29598115D01*
X41773540Y-29598115D02*
X41056361Y-28880936D01*
D45*
G04 #@! TO.N,Net-(C32-Pad2)*
X39538400Y-31276800D02*
X40273540Y-30541660D01*
X40273540Y-30541660D02*
X40273540Y-29657040D01*
X39538400Y-32004000D02*
X39538400Y-31276800D01*
D41*
X40273540Y-29657040D02*
X40273540Y-28898116D01*
X40273540Y-28898116D02*
X40256360Y-28880936D01*
X37868860Y-29690760D02*
X38522060Y-29690760D01*
X38522060Y-29690760D02*
X39331884Y-28880936D01*
X39331884Y-28880936D02*
X39902807Y-28880936D01*
X39902807Y-28880936D02*
X40256360Y-28880936D01*
G04 #@! TO.N,Net-(C33-Pad1)*
X41412160Y-21830280D02*
X40907016Y-21830280D01*
X40907016Y-21830280D02*
X40256360Y-22480936D01*
X39456360Y-21934740D02*
X39710164Y-21934740D01*
X39710164Y-21934740D02*
X40256360Y-22480936D01*
G04 #@! TO.N,Net-(C33-Pad2)*
X39456360Y-23434740D02*
X40013125Y-23434740D01*
X40013125Y-23434740D02*
X40256361Y-23191504D01*
X42935460Y-23538880D02*
X42644060Y-23830280D01*
X42644060Y-23830280D02*
X41412160Y-23830280D01*
X42935460Y-23375620D02*
X42935460Y-23538880D01*
X41412160Y-23830280D02*
X40895137Y-23830280D01*
X40895137Y-23830280D02*
X40256361Y-23191504D01*
D43*
G04 #@! TO.N,BCM2_SDA*
X32105600Y-19405600D02*
X30988000Y-18288000D01*
X30988000Y-18288000D02*
X22733000Y-18288000D01*
G04 #@! TO.N,BCM4_GPCLK0*
X27381200Y-11785600D02*
X29972008Y-14376408D01*
X15990000Y-5270000D02*
X22505600Y-11785600D01*
X29972008Y-14376408D02*
X35687748Y-14376408D01*
X35687748Y-14376408D02*
X36118800Y-14376408D01*
X22505600Y-11785600D02*
X27381200Y-11785600D01*
G04 #@! TO.N,BCM17*
X26060400Y-12954000D02*
X24620220Y-12954000D01*
X24620220Y-12954000D02*
X24616410Y-12957810D01*
X26060400Y-12954000D02*
X26060400Y-13944600D01*
X26060400Y-13944600D02*
X26035000Y-13970000D01*
G04 #@! TO.N,BCM22*
X27432000Y-9245600D02*
X27432000Y-6552000D01*
X27432000Y-6552000D02*
X26150000Y-5270000D01*
X27279600Y-9398000D02*
X27432000Y-9245600D01*
X26771600Y-9398000D02*
X27279600Y-9398000D01*
X26771600Y-9398000D02*
X26771600Y-8407400D01*
X26771600Y-8407400D02*
X26797000Y-8382000D01*
G04 #@! TO.N,BCM23*
X38079680Y-16951960D02*
X38361645Y-17233925D01*
X38361645Y-17233925D02*
X38361645Y-21386220D01*
X38361645Y-21386220D02*
X38611644Y-21636219D01*
G04 #@! TO.N,BCM10_MOSI*
X33578800Y-6654800D02*
X33852000Y-6928000D01*
X33852000Y-6928000D02*
X33852000Y-7532000D01*
X32613600Y-6654800D02*
X33578800Y-6654800D01*
X32093599Y-6134799D02*
X32613600Y-6654800D01*
X31230000Y-5270000D02*
X32093599Y-6133599D01*
X32093599Y-6133599D02*
X32093599Y-6134799D01*
X31230000Y-5270000D02*
X31179000Y-5270000D01*
G04 #@! TO.N,BCM9_MISO*
X33770000Y-5626800D02*
X34652000Y-6508800D01*
X34652000Y-6508800D02*
X34652000Y-7532000D01*
X33770000Y-5270000D02*
X33770000Y-5626800D01*
X33770000Y-5270000D02*
X33719000Y-5270000D01*
G04 #@! TO.N,BCM25*
X35052000Y-5943600D02*
X35452000Y-6343600D01*
X35452000Y-6343600D02*
X35452000Y-7532000D01*
X35052000Y-5943600D02*
X35052000Y-4012000D01*
X35052000Y-4012000D02*
X33770000Y-2730000D01*
G04 #@! TO.N,BCM11_SCLK*
X36310000Y-5270000D02*
X36310000Y-7474000D01*
X36310000Y-7474000D02*
X36252000Y-7532000D01*
G04 #@! TO.N,BCM7_CE1*
X40386000Y-15951200D02*
X40386000Y-15646400D01*
X40386000Y-15646400D02*
X39674800Y-14935200D01*
X39674800Y-14935200D02*
X39674800Y-13462000D01*
X39674800Y-13462000D02*
X40538400Y-12598400D01*
X40538400Y-12598400D02*
X40538400Y-9245600D01*
X40538400Y-9245600D02*
X40081200Y-8788400D01*
X40081200Y-8788400D02*
X40081200Y-3961200D01*
X40081200Y-3961200D02*
X38850000Y-2730000D01*
D45*
G04 #@! TO.N,VCCIO_3*
X57416000Y-23190200D02*
X56845200Y-23190200D01*
X56845200Y-23190200D02*
X56388000Y-23647400D01*
X56388000Y-23647400D02*
X56388000Y-26634440D01*
X56388000Y-26634440D02*
X56032400Y-26990040D01*
D47*
X50546000Y-15748000D02*
X50546000Y-19203993D01*
X51054000Y-13970000D02*
X51054000Y-15240000D01*
X51054000Y-15240000D02*
X50546000Y-15748000D01*
X51516280Y-23576280D02*
X51516280Y-26990040D01*
X50546000Y-22606000D02*
X51516280Y-23576280D01*
X50546000Y-19203993D02*
X50546000Y-22606000D01*
D41*
X51562000Y-26944320D02*
X51516280Y-26990040D01*
D42*
X52213000Y-32131000D02*
X52213000Y-27686760D01*
X52213000Y-27686760D02*
X51516280Y-26990040D01*
D47*
X58120280Y-26990040D02*
X56032400Y-26990040D01*
X56032400Y-26990040D02*
X51516280Y-26990040D01*
D46*
X49199800Y-27482800D02*
X51023520Y-27482800D01*
X51023520Y-27482800D02*
X51516280Y-26990040D01*
D42*
X49199800Y-27482800D02*
X49199800Y-27508200D01*
X49199800Y-27508200D02*
X48133000Y-28575000D01*
X47574200Y-28117800D02*
X47142400Y-28549600D01*
X47574200Y-28117800D02*
X47574200Y-27482800D01*
X47574200Y-27482800D02*
X49199800Y-27482800D01*
X47495460Y-23088600D02*
X47167800Y-23088600D01*
X47167800Y-23088600D02*
X46101000Y-22021800D01*
X47484600Y-21523960D02*
X46598840Y-21523960D01*
X46598840Y-21523960D02*
X46101000Y-22021800D01*
D41*
G04 #@! TO.N,Net-(D1-Pad1)*
X36083240Y-28934040D02*
X37003257Y-28934040D01*
X37003257Y-28934040D02*
X37056361Y-28880936D01*
D43*
G04 #@! TO.N,SD_DQ0*
X34611644Y-20036220D02*
X30938104Y-16362680D01*
X30938104Y-16362680D02*
X20159234Y-16362680D01*
X20159234Y-16362680D02*
X19728182Y-16362680D01*
G04 #@! TO.N,SD_DQ1*
X34656360Y-20791504D02*
X34609104Y-20791504D01*
X34609104Y-20791504D02*
X31673800Y-17856200D01*
X31673800Y-17856200D02*
X25806400Y-17856200D01*
X25806400Y-17856200D02*
X25273000Y-17322800D01*
X25273000Y-17322800D02*
X22155471Y-17322800D01*
X22155471Y-17322800D02*
X21595091Y-17883180D01*
G04 #@! TO.N,SD_DQ2*
X32686352Y-20566380D02*
X32199580Y-20566380D01*
X32199580Y-20566380D02*
X30632400Y-18999200D01*
X30632400Y-18999200D02*
X29235400Y-18999200D01*
X29235400Y-18999200D02*
X29006800Y-18770600D01*
X29006800Y-18770600D02*
X24485600Y-18770600D01*
X24485600Y-18770600D02*
X24079200Y-19177000D01*
X24079200Y-19177000D02*
X21462994Y-19177000D01*
X21462994Y-19177000D02*
X21082000Y-18796006D01*
D48*
X34432520Y-21191500D02*
X33807400Y-20566380D01*
X33807400Y-20566380D02*
X32686352Y-20566380D01*
X35411644Y-22436220D02*
X35411644Y-21754785D01*
X35411644Y-21754785D02*
X34848359Y-21191500D01*
X34848359Y-21191500D02*
X34432520Y-21191500D01*
D43*
G04 #@! TO.N,SD_DQ3*
X19832320Y-20360640D02*
X31282640Y-20360640D01*
X31282640Y-20360640D02*
X32512000Y-21590000D01*
X32512000Y-21590000D02*
X33852407Y-21590000D01*
X33852407Y-21590000D02*
X34406397Y-22143990D01*
X34406397Y-22143990D02*
X34656396Y-22393989D01*
G04 #@! TO.N,SD_DQ4*
X26438858Y-21104858D02*
X30477458Y-21104858D01*
X26438858Y-21104858D02*
X21266672Y-21104858D01*
X21266672Y-21104858D02*
X20835620Y-21104858D01*
D48*
X34174749Y-22554249D02*
X34083309Y-22462809D01*
D43*
X34083309Y-22462809D02*
X33799780Y-22179280D01*
X33799780Y-22179280D02*
X31551880Y-22179280D01*
X31551880Y-22179280D02*
X30480000Y-21107400D01*
D48*
X34997324Y-22821900D02*
X35161645Y-22986221D01*
X34177289Y-22554249D02*
X34444940Y-22821900D01*
X34444940Y-22821900D02*
X34997324Y-22821900D01*
X35161645Y-22986221D02*
X35411644Y-23236220D01*
X34177289Y-22554249D02*
X34174749Y-22554249D01*
D43*
X30477458Y-21104858D02*
X30480000Y-21107400D01*
D49*
G04 #@! TO.N,SD_DQ5*
X33205420Y-22705060D02*
X33327340Y-22705060D01*
X33959800Y-22849840D02*
X33815020Y-22705060D01*
D48*
X34099500Y-22849840D02*
X33959800Y-22849840D01*
X34485881Y-23236221D02*
X34099500Y-22849840D01*
X34611644Y-23236221D02*
X34485881Y-23236221D01*
D49*
X33815020Y-22705060D02*
X33327340Y-22705060D01*
X33205420Y-22705060D02*
X33159700Y-22705060D01*
X33159700Y-22705060D02*
X33154620Y-22710140D01*
D43*
X33210498Y-22722838D02*
X24207992Y-22722838D01*
X24207992Y-22722838D02*
X23776940Y-22722838D01*
X34611644Y-23236221D02*
X34481803Y-23106380D01*
G04 #@! TO.N,SD_DQ6*
X34268163Y-23636217D02*
X34142680Y-23761700D01*
X34142680Y-23761700D02*
X32804100Y-23761700D01*
X32804100Y-23761700D02*
X32334200Y-23291800D01*
X32334200Y-23291800D02*
X22529804Y-23291800D01*
X22529804Y-23291800D02*
X22326600Y-23495004D01*
D48*
X35411645Y-24036220D02*
X35011642Y-23636217D01*
X35011642Y-23636217D02*
X34268163Y-23636217D01*
D43*
G04 #@! TO.N,SD_DQ7*
X34611643Y-24036219D02*
X34553422Y-24094440D01*
X34553422Y-24094440D02*
X30378002Y-24094440D01*
X30378002Y-24094440D02*
X30007162Y-23723600D01*
X30007162Y-23723600D02*
X23393400Y-23723600D01*
X23393400Y-23723600D02*
X21971000Y-25146000D01*
G04 #@! TO.N,SD_LDQM*
X34245405Y-24436215D02*
X34213800Y-24467820D01*
X34213800Y-24467820D02*
X29227780Y-24467820D01*
X29227780Y-24467820D02*
X26924000Y-26771600D01*
X26924000Y-26771600D02*
X21031200Y-26771600D01*
D48*
X35411644Y-24836219D02*
X35011640Y-24436215D01*
X35011640Y-24436215D02*
X34245405Y-24436215D01*
D43*
G04 #@! TO.N,~SD_WE*
X19050000Y-27533600D02*
X19067780Y-27551380D01*
X19067780Y-27551380D02*
X27109420Y-27551380D01*
X27109420Y-27551380D02*
X29824580Y-24836220D01*
X29824580Y-24836220D02*
X34611644Y-24836220D01*
G04 #@! TO.N,~SD_CS*
X19050000Y-29921200D02*
X19070320Y-29941520D01*
X19070320Y-29941520D02*
X25684480Y-29941520D01*
X25684480Y-29941520D02*
X27759660Y-27866340D01*
X27759660Y-27866340D02*
X31112460Y-27866340D01*
X31112460Y-27866340D02*
X33742584Y-25236216D01*
D48*
X35411644Y-25636219D02*
X35011641Y-25236216D01*
X35011641Y-25236216D02*
X33742584Y-25236216D01*
D43*
G04 #@! TO.N,SD_BS0*
X20335240Y-30744160D02*
X25847040Y-30744160D01*
X25847040Y-30744160D02*
X28016200Y-28575000D01*
X28016200Y-28575000D02*
X31089600Y-28575000D01*
X31089600Y-28575000D02*
X34028378Y-25636222D01*
X34028378Y-25636222D02*
X34258103Y-25636222D01*
X34258103Y-25636222D02*
X34611656Y-25636222D01*
G04 #@! TO.N,SD_BS1*
X19050000Y-31623000D02*
X19136360Y-31536640D01*
X19136360Y-31536640D02*
X26019760Y-31536640D01*
X26019760Y-31536640D02*
X28397200Y-29159200D01*
X28397200Y-29159200D02*
X31125068Y-29159200D01*
X31125068Y-29159200D02*
X34248044Y-26036224D01*
D48*
X35411643Y-26436221D02*
X35011646Y-26036224D01*
X35011646Y-26036224D02*
X34248044Y-26036224D01*
D43*
G04 #@! TO.N,SD_A10*
X20260832Y-32349440D02*
X19829780Y-32349440D01*
X29192220Y-32349440D02*
X20260832Y-32349440D01*
X33505439Y-28036221D02*
X29192220Y-32349440D01*
X34611643Y-28036221D02*
X33505439Y-28036221D01*
G04 #@! TO.N,SD_A0*
X34253523Y-28436217D02*
X33615983Y-28436217D01*
X33615983Y-28436217D02*
X28897580Y-33154620D01*
X28897580Y-33154620D02*
X18996660Y-33154620D01*
D48*
X35411644Y-28036219D02*
X35203640Y-28036219D01*
X35203640Y-28036219D02*
X34803642Y-28436217D01*
X34803642Y-28436217D02*
X34253523Y-28436217D01*
D43*
G04 #@! TO.N,SD_A1*
X34611644Y-28836219D02*
X34060063Y-29387800D01*
X34060063Y-29387800D02*
X33553400Y-29387800D01*
X33553400Y-29387800D02*
X28986482Y-33954718D01*
X28986482Y-33954718D02*
X20237972Y-33954718D01*
X20237972Y-33954718D02*
X19806920Y-33954718D01*
G04 #@! TO.N,SD_A2*
X35456361Y-28880936D02*
X35206362Y-29130935D01*
X35206362Y-29130935D02*
X35133605Y-29130935D01*
X35133605Y-29130935D02*
X34630360Y-29634180D01*
X34630360Y-29634180D02*
X34254440Y-29634180D01*
X34254440Y-29634180D02*
X29124550Y-34764070D01*
X29124550Y-34764070D02*
X19392244Y-34764070D01*
X19392244Y-34764070D02*
X18961192Y-34764070D01*
G04 #@! TO.N,SD_A3*
X19822160Y-35549838D02*
X28844242Y-35549838D01*
X28844242Y-35549838D02*
X34417000Y-29977080D01*
X34417000Y-29977080D02*
X35160205Y-29977080D01*
X35160205Y-29977080D02*
X35206366Y-29930919D01*
X35206366Y-29930919D02*
X35456365Y-29680920D01*
G04 #@! TO.N,SD_A12*
X30540960Y-29949142D02*
X30987998Y-29949142D01*
X30987998Y-29949142D02*
X33700915Y-27236225D01*
X33700915Y-27236225D02*
X34258103Y-27236225D01*
X34258103Y-27236225D02*
X34611656Y-27236225D01*
D42*
G04 #@! TO.N,Net-(GR4-Pad3)*
X41402000Y-50616000D02*
X41390000Y-50604000D01*
X41402000Y-51562000D02*
X41402000Y-50616000D01*
G04 #@! TO.N,Net-(GR5-Pad3)*
X36830000Y-51562000D02*
X36830000Y-50614000D01*
D43*
G04 #@! TO.N,GR1-IO2*
X39456360Y-29591504D02*
X39456360Y-30444440D01*
X39456360Y-30444440D02*
X38557200Y-31343600D01*
X38557200Y-31343600D02*
X38557200Y-37693600D01*
X38557200Y-37693600D02*
X37642800Y-38608000D01*
X37642800Y-38608000D02*
X37642800Y-44043600D01*
X37642800Y-44043600D02*
X36728400Y-44958000D01*
X36728400Y-44958000D02*
X30784800Y-44958000D01*
X30784800Y-44958000D02*
X30226000Y-45516800D01*
X30226000Y-45516800D02*
X30226000Y-47260938D01*
X30226000Y-47260938D02*
X27179698Y-50307240D01*
X27179698Y-50307240D02*
X18170025Y-50307240D01*
X18170025Y-50307240D02*
X17272000Y-50307240D01*
G04 #@! TO.N,GR1-IO1*
X38656359Y-30480936D02*
X38201600Y-30935695D01*
X38201600Y-30935695D02*
X38201600Y-37287200D01*
X38201600Y-37287200D02*
X33375600Y-42113200D01*
X33375600Y-42113200D02*
X28600400Y-42113200D01*
X28600400Y-42113200D02*
X27654579Y-43059021D01*
X27654579Y-43059021D02*
X27654579Y-47028199D01*
X27654579Y-47028199D02*
X26374518Y-48308260D01*
X26374518Y-48308260D02*
X18170025Y-48308260D01*
X18170025Y-48308260D02*
X17272000Y-48308260D01*
G04 #@! TO.N,GR2-IO2*
X37856361Y-30480936D02*
X37795200Y-30542097D01*
X37795200Y-30542097D02*
X37795200Y-36931600D01*
X37795200Y-36931600D02*
X33578800Y-41148000D01*
X33578800Y-41148000D02*
X22098000Y-41148000D01*
X22098000Y-41148000D02*
X12938760Y-50307240D01*
X12938760Y-50307240D02*
X10296025Y-50307240D01*
X10296025Y-50307240D02*
X9398000Y-50307240D01*
G04 #@! TO.N,GR2-IO1*
X37056359Y-30480937D02*
X37388800Y-30813378D01*
X37388800Y-30813378D02*
X37388800Y-36525200D01*
X37388800Y-36525200D02*
X33782000Y-40132000D01*
X33782000Y-40132000D02*
X22301200Y-40132000D01*
X22301200Y-40132000D02*
X14124940Y-48308260D01*
X14124940Y-48308260D02*
X10296025Y-48308260D01*
X10296025Y-48308260D02*
X9398000Y-48308260D01*
G04 #@! TO.N,GR3-IO2*
X36256361Y-30480937D02*
X34784098Y-31953200D01*
X34784098Y-31953200D02*
X33883600Y-31953200D01*
X33883600Y-31953200D02*
X29718000Y-36118800D01*
X29718000Y-36118800D02*
X29718000Y-37592000D01*
X29718000Y-37592000D02*
X28092400Y-39217600D01*
X28092400Y-39217600D02*
X21640800Y-39217600D01*
X21640800Y-39217600D02*
X16560800Y-44297600D01*
X16560800Y-44297600D02*
X4150360Y-44297600D01*
X4150360Y-44297600D02*
X2540000Y-42687240D01*
G04 #@! TO.N,GR3-IO1*
X35456360Y-30480935D02*
X34873095Y-31064200D01*
X34873095Y-31064200D02*
X34010600Y-31064200D01*
X34010600Y-31064200D02*
X29159200Y-35915600D01*
X29159200Y-35915600D02*
X29159200Y-36677600D01*
X29159200Y-36677600D02*
X27584400Y-38252400D01*
X27584400Y-38252400D02*
X21132800Y-38252400D01*
X21132800Y-38252400D02*
X16256000Y-43129200D01*
X16256000Y-43129200D02*
X4980940Y-43129200D01*
X4980940Y-43129200D02*
X2540000Y-40688260D01*
G04 #@! TO.N,Net-(RN6-Pad1)*
X54880880Y-34705440D02*
X55105880Y-34705440D01*
X55105880Y-34705440D02*
X57553320Y-32258000D01*
X57553320Y-32258000D02*
X57658000Y-32258000D01*
G04 #@! TO.N,Net-(RN6-Pad2)*
X54880880Y-35505440D02*
X56950560Y-35505440D01*
X56950560Y-35505440D02*
X57658000Y-34798000D01*
G04 #@! TO.N,Net-(RN6-Pad3)*
X54880880Y-36305440D02*
X56625440Y-36305440D01*
X56625440Y-36305440D02*
X57658000Y-37338000D01*
G04 #@! TO.N,Net-(RN6-Pad4)*
X54880880Y-37105440D02*
X55105880Y-37105440D01*
X55105880Y-37105440D02*
X57658000Y-39657560D01*
X57658000Y-39657560D02*
X57658000Y-39878000D01*
G04 #@! TO.N,HDR1-12*
X49276000Y-28575000D02*
X49225200Y-28575000D01*
X49225200Y-28575000D02*
X48504817Y-29295383D01*
X48504817Y-29295383D02*
X45560238Y-29295383D01*
X45560238Y-29295383D02*
X44301076Y-28036221D01*
G04 #@! TO.N,HDR1-14*
X50114200Y-29565600D02*
X49809400Y-29870400D01*
X49809400Y-29870400D02*
X45335256Y-29870400D01*
X45335256Y-29870400D02*
X44301076Y-28836220D01*
G04 #@! TO.N,DIPSW4*
X44301077Y-30436221D02*
X48216221Y-30436221D01*
X48488600Y-30708600D02*
X50038000Y-32258000D01*
X48216221Y-30436221D02*
X48488600Y-30708600D01*
G04 #@! TO.N,DIPSW3*
X43501077Y-30436221D02*
X44118896Y-31054040D01*
X44118896Y-31054040D02*
X46294040Y-31054040D01*
X46294040Y-31054040D02*
X49377601Y-34137601D01*
X49377601Y-34137601D02*
X50038000Y-34798000D01*
G04 #@! TO.N,DIPSW2*
X42701076Y-30436221D02*
X43710055Y-31445200D01*
X43710055Y-31445200D02*
X44679962Y-31445200D01*
X47447200Y-34747200D02*
X49377601Y-36677601D01*
X44679962Y-31445200D02*
X44883162Y-31648400D01*
X44883162Y-31648400D02*
X45821600Y-31648400D01*
X45821600Y-31648400D02*
X47447200Y-33274000D01*
X47447200Y-33274000D02*
X47447200Y-34747200D01*
X49377601Y-36677601D02*
X50038000Y-37338000D01*
G04 #@! TO.N,DIPSW1*
X41883822Y-30452237D02*
X41883822Y-30805790D01*
X41883822Y-30805790D02*
X42904232Y-31826200D01*
X42904232Y-31826200D02*
X44470320Y-31826200D01*
X44470320Y-31826200D02*
X44775120Y-32131000D01*
X44775120Y-32131000D02*
X45491400Y-32131000D01*
X45491400Y-32131000D02*
X46786800Y-33426400D01*
X46786800Y-33426400D02*
X46786800Y-36626800D01*
X46786800Y-36626800D02*
X50038000Y-39878000D01*
G04 #@! TO.N,Net-(R7-Pad2)*
X19824000Y-14122400D02*
X18745200Y-14122400D01*
X18745200Y-14122400D02*
X17424400Y-12801600D01*
G04 #@! TO.N,Net-(JP1-Pad2)*
X27584400Y-12954000D02*
X27635200Y-12954000D01*
X27635200Y-12954000D02*
X30226000Y-15544800D01*
X30226000Y-15544800D02*
X31445200Y-15544800D01*
X31445200Y-15544800D02*
X35819080Y-19918680D01*
D48*
X35847020Y-22782165D02*
X36256359Y-23191504D01*
X35847020Y-22044660D02*
X35847020Y-22782165D01*
X35819080Y-22016720D02*
X35847020Y-22044660D01*
X35819080Y-19918680D02*
X35819080Y-22016720D01*
D43*
X26771600Y-12954000D02*
X26771600Y-13868400D01*
X26771600Y-13868400D02*
X26670000Y-13970000D01*
X26771600Y-12954000D02*
X27584400Y-12954000D01*
D45*
G04 #@! TO.N,Net-(JP4-Pad2)*
X14478000Y-10668000D02*
X14478000Y-11684000D01*
D43*
G04 #@! TO.N,Net-(JP5-Pad2)*
X36804600Y-20074326D02*
X37541200Y-19337726D01*
X36893500Y-14135100D02*
X36576000Y-13817600D01*
X37541200Y-19337726D02*
X37541200Y-18526760D01*
X36893500Y-17879060D02*
X36893500Y-14135100D01*
X30327600Y-13817600D02*
X27286000Y-10776000D01*
X37541200Y-18526760D02*
X36893500Y-17879060D01*
X36576000Y-13817600D02*
X30327600Y-13817600D01*
X27286000Y-10776000D02*
X26066800Y-10776000D01*
X26066800Y-10776000D02*
X25196800Y-9906000D01*
X26060400Y-9398000D02*
X26060400Y-8483600D01*
X26060400Y-8483600D02*
X26162000Y-8382000D01*
X25196800Y-9906000D02*
X25704800Y-9398000D01*
X25704800Y-9398000D02*
X26060400Y-9398000D01*
D48*
X37011644Y-21636219D02*
X37011644Y-21338784D01*
X37011644Y-21338784D02*
X36656363Y-20983503D01*
X36656363Y-20983503D02*
X36656363Y-20222563D01*
X36656363Y-20222563D02*
X36804600Y-20074326D01*
D46*
G04 #@! TO.N,Net-(JP6-Pad2)*
X55154000Y-11160000D02*
X51324000Y-11160000D01*
X51324000Y-11160000D02*
X51054000Y-11430000D01*
X61250000Y-11160000D02*
X55154000Y-11160000D01*
D45*
X51054000Y-10414000D02*
X51054000Y-11430000D01*
G04 #@! TO.N,Net-(R8-Pad1)*
X58120280Y-24704040D02*
X58120280Y-23985920D01*
X58120280Y-23985920D02*
X58902600Y-23203600D01*
X58902600Y-23203600D02*
X58902600Y-20603200D01*
X58902600Y-20603200D02*
X59207400Y-20298400D01*
D43*
G04 #@! TO.N,Net-(RN12-Pad6)*
X35345000Y-10649000D02*
X33801000Y-10649000D01*
X33801000Y-10649000D02*
X33629600Y-10820400D01*
X35452000Y-9232000D02*
X35452000Y-10542000D01*
X35452000Y-10542000D02*
X35345000Y-10649000D01*
G04 #@! TO.N,Net-(RN12-Pad5)*
X35947400Y-11449000D02*
X36741200Y-12242800D01*
X36741200Y-12242800D02*
X39420800Y-12242800D01*
X36220400Y-11176000D02*
X35947400Y-11449000D01*
X35947400Y-11449000D02*
X35345000Y-11449000D01*
X36220400Y-9866000D02*
X36220400Y-11176000D01*
X36252000Y-9232000D02*
X36252000Y-9834400D01*
X36252000Y-9834400D02*
X36220400Y-9866000D01*
G04 #@! TO.N,Net-(RN12-Pad7)*
X33274000Y-12192000D02*
X33832800Y-12750800D01*
X33832800Y-12750800D02*
X37134800Y-12750800D01*
X37134800Y-12750800D02*
X38735000Y-14351000D01*
X32969200Y-10464800D02*
X32969201Y-11887201D01*
X32969201Y-11887201D02*
X33274000Y-12192000D01*
X33324800Y-10109200D02*
X32969200Y-10464800D01*
X34377200Y-10109200D02*
X33324800Y-10109200D01*
X34652000Y-9232000D02*
X34652000Y-9834400D01*
X34652000Y-9834400D02*
X34377200Y-10109200D01*
X36239860Y-20809269D02*
X36239860Y-19577460D01*
X36239860Y-19577460D02*
X33223200Y-16560800D01*
X33223200Y-16560800D02*
X33223200Y-15494001D01*
X33223200Y-15494001D02*
X33223199Y-15494000D01*
G04 #@! TO.N,Net-(RN12-Pad8)*
X33852000Y-9232000D02*
X32627200Y-9232000D01*
X32627200Y-9232000D02*
X30886400Y-10972800D01*
X31953200Y-12903200D02*
X31953200Y-12039600D01*
X31953200Y-12039600D02*
X30886400Y-10972800D01*
X32308800Y-13258800D02*
X31953200Y-12903200D01*
X36830000Y-13258800D02*
X32308800Y-13258800D01*
X36830000Y-13258800D02*
X37378640Y-13807440D01*
X37378640Y-13807440D02*
X37378640Y-17536160D01*
X37378640Y-17536160D02*
X37957760Y-18115280D01*
X37957760Y-18115280D02*
X37957760Y-19890103D01*
X37957760Y-19890103D02*
X37056359Y-20791504D01*
G04 #@! TD*
G04 #@! TO.N,+1.2V*
G36*
X46136560Y-22806044D02*
X46136560Y-23157180D01*
X46487695Y-23157180D01*
X46659800Y-23329285D01*
X46659800Y-24307800D01*
X46641052Y-24307800D01*
X46641033Y-24307703D01*
X46568937Y-24199803D01*
X46461037Y-24127707D01*
X46333760Y-24102390D01*
X45583760Y-24102390D01*
X45456483Y-24127707D01*
X45348583Y-24199803D01*
X45276487Y-24307703D01*
X45276468Y-24307800D01*
X45178384Y-24307800D01*
X45170965Y-24304727D01*
X44941739Y-24304727D01*
X44934320Y-24307800D01*
X44837293Y-24307800D01*
X44804557Y-24285927D01*
X44677280Y-24260610D01*
X43877280Y-24260610D01*
X43750003Y-24285927D01*
X43717268Y-24307800D01*
X43688000Y-24307800D01*
X43658840Y-24313600D01*
X43634118Y-24330118D01*
X43617600Y-24354840D01*
X43611800Y-24384000D01*
X43611800Y-24403375D01*
X43570007Y-24465923D01*
X43544690Y-24593200D01*
X43544690Y-25343200D01*
X43570007Y-25470477D01*
X43611800Y-25533025D01*
X43611800Y-25933537D01*
X43560547Y-26010243D01*
X43535230Y-26137520D01*
X43535230Y-26887520D01*
X43560547Y-27014797D01*
X43611800Y-27091503D01*
X43611800Y-27402140D01*
X43557190Y-27402140D01*
X43500040Y-27459290D01*
X43500040Y-27852940D01*
X43520040Y-27852940D01*
X43520040Y-28208540D01*
X43500040Y-28208540D01*
X43500040Y-28602190D01*
X43557190Y-28659340D01*
X43611800Y-28659340D01*
X43611800Y-28798150D01*
X43230420Y-28798150D01*
X43230420Y-28716927D01*
X43144440Y-28509355D01*
X43144440Y-28208540D01*
X42775790Y-28208540D01*
X42728990Y-28255340D01*
X42539607Y-28255340D01*
X42539150Y-28255529D01*
X42539150Y-27681840D01*
X42519941Y-27585269D01*
X42718640Y-27585269D01*
X42718640Y-27795790D01*
X42775790Y-27852940D01*
X43144440Y-27852940D01*
X43144440Y-27459290D01*
X43087290Y-27402140D01*
X42901768Y-27402140D01*
X42817748Y-27436943D01*
X42753442Y-27501249D01*
X42718640Y-27585269D01*
X42519941Y-27585269D01*
X42513833Y-27554563D01*
X42441737Y-27446663D01*
X42333837Y-27374567D01*
X42206560Y-27349250D01*
X41759690Y-27349250D01*
X41732200Y-27321760D01*
X41732200Y-26989944D01*
X41786463Y-27012421D01*
X42015689Y-27012421D01*
X42149212Y-26957114D01*
X42174023Y-27017012D01*
X42238329Y-27081318D01*
X42322349Y-27116120D01*
X42532870Y-27116120D01*
X42590020Y-27058970D01*
X42590020Y-26690320D01*
X42945620Y-26690320D01*
X42945620Y-27058970D01*
X43002770Y-27116120D01*
X43213291Y-27116120D01*
X43297311Y-27081318D01*
X43361617Y-27017012D01*
X43396420Y-26932992D01*
X43396420Y-26747470D01*
X43339270Y-26690320D01*
X42945620Y-26690320D01*
X42590020Y-26690320D01*
X42570020Y-26690320D01*
X42570020Y-26334720D01*
X42590020Y-26334720D01*
X42590020Y-25966070D01*
X42945620Y-25966070D01*
X42945620Y-26334720D01*
X43339270Y-26334720D01*
X43396420Y-26277570D01*
X43396420Y-26092048D01*
X43361617Y-26008028D01*
X43297311Y-25943722D01*
X43213291Y-25908920D01*
X43002770Y-25908920D01*
X42945620Y-25966070D01*
X42590020Y-25966070D01*
X42532870Y-25908920D01*
X42411782Y-25908920D01*
X42477263Y-25750837D01*
X42477263Y-25571800D01*
X42542330Y-25571800D01*
X42599480Y-25514650D01*
X42599480Y-25146000D01*
X42955080Y-25146000D01*
X42955080Y-25514650D01*
X43012230Y-25571800D01*
X43222751Y-25571800D01*
X43306771Y-25536998D01*
X43371077Y-25472692D01*
X43405880Y-25388672D01*
X43405880Y-25203150D01*
X43348730Y-25146000D01*
X42955080Y-25146000D01*
X42599480Y-25146000D01*
X42223239Y-25146000D01*
X42015676Y-25060024D01*
X41786450Y-25060024D01*
X41732200Y-25082495D01*
X41732200Y-24662870D01*
X42037160Y-24662870D01*
X42148680Y-24640687D01*
X42148680Y-24733250D01*
X42205830Y-24790400D01*
X42599480Y-24790400D01*
X42599480Y-24421750D01*
X42955080Y-24421750D01*
X42955080Y-24790400D01*
X43348730Y-24790400D01*
X43405880Y-24733250D01*
X43405880Y-24547728D01*
X43371077Y-24463708D01*
X43306771Y-24399402D01*
X43222751Y-24364600D01*
X43012230Y-24364600D01*
X42955080Y-24421750D01*
X42599480Y-24421750D01*
X42542330Y-24364600D01*
X42362923Y-24364600D01*
X42369750Y-24330280D01*
X42369750Y-24258080D01*
X42601927Y-24258080D01*
X42644060Y-24266461D01*
X42686193Y-24258080D01*
X42686194Y-24258080D01*
X42810979Y-24233259D01*
X42923299Y-24158210D01*
X43185460Y-24158210D01*
X43312737Y-24132893D01*
X43420637Y-24060797D01*
X43492733Y-23952897D01*
X43518050Y-23825620D01*
X43518050Y-23610570D01*
X43956860Y-23610570D01*
X43956860Y-23871092D01*
X43991663Y-23955112D01*
X44055969Y-24019418D01*
X44139989Y-24054220D01*
X44253310Y-24054220D01*
X44310460Y-23997070D01*
X44310460Y-23553420D01*
X44560460Y-23553420D01*
X44560460Y-23997070D01*
X44617610Y-24054220D01*
X44730931Y-24054220D01*
X44814951Y-24019418D01*
X44879257Y-23955112D01*
X44914060Y-23871092D01*
X44914060Y-23610570D01*
X44873420Y-23569930D01*
X45355160Y-23569930D01*
X45355160Y-23780451D01*
X45389962Y-23864471D01*
X45454268Y-23928777D01*
X45538288Y-23963580D01*
X45723810Y-23963580D01*
X45780960Y-23906430D01*
X45780960Y-23512780D01*
X46136560Y-23512780D01*
X46136560Y-23906430D01*
X46193710Y-23963580D01*
X46379232Y-23963580D01*
X46463252Y-23928777D01*
X46527558Y-23864471D01*
X46562360Y-23780451D01*
X46562360Y-23569930D01*
X46505210Y-23512780D01*
X46136560Y-23512780D01*
X45780960Y-23512780D01*
X45412310Y-23512780D01*
X45355160Y-23569930D01*
X44873420Y-23569930D01*
X44856910Y-23553420D01*
X44560460Y-23553420D01*
X44310460Y-23553420D01*
X44014010Y-23553420D01*
X43956860Y-23610570D01*
X43518050Y-23610570D01*
X43518050Y-22925620D01*
X43509006Y-22880148D01*
X43956860Y-22880148D01*
X43956860Y-23140670D01*
X44014010Y-23197820D01*
X44310460Y-23197820D01*
X44310460Y-22754170D01*
X44560460Y-22754170D01*
X44560460Y-23197820D01*
X44856910Y-23197820D01*
X44914060Y-23140670D01*
X44914060Y-22889509D01*
X45355160Y-22889509D01*
X45355160Y-23100030D01*
X45412310Y-23157180D01*
X45780960Y-23157180D01*
X45780960Y-22763530D01*
X45723810Y-22706380D01*
X45538288Y-22706380D01*
X45454268Y-22741183D01*
X45389962Y-22805489D01*
X45355160Y-22889509D01*
X44914060Y-22889509D01*
X44914060Y-22880148D01*
X44879257Y-22796128D01*
X44814951Y-22731822D01*
X44730931Y-22697020D01*
X44617610Y-22697020D01*
X44560460Y-22754170D01*
X44310460Y-22754170D01*
X44253310Y-22697020D01*
X44139989Y-22697020D01*
X44055969Y-22731822D01*
X43991663Y-22796128D01*
X43956860Y-22880148D01*
X43509006Y-22880148D01*
X43492733Y-22798343D01*
X43420637Y-22690443D01*
X43408300Y-22682200D01*
X46012716Y-22682200D01*
X46136560Y-22806044D01*
X46136560Y-22806044D01*
G37*
X46136560Y-22806044D02*
X46136560Y-23157180D01*
X46487695Y-23157180D01*
X46659800Y-23329285D01*
X46659800Y-24307800D01*
X46641052Y-24307800D01*
X46641033Y-24307703D01*
X46568937Y-24199803D01*
X46461037Y-24127707D01*
X46333760Y-24102390D01*
X45583760Y-24102390D01*
X45456483Y-24127707D01*
X45348583Y-24199803D01*
X45276487Y-24307703D01*
X45276468Y-24307800D01*
X45178384Y-24307800D01*
X45170965Y-24304727D01*
X44941739Y-24304727D01*
X44934320Y-24307800D01*
X44837293Y-24307800D01*
X44804557Y-24285927D01*
X44677280Y-24260610D01*
X43877280Y-24260610D01*
X43750003Y-24285927D01*
X43717268Y-24307800D01*
X43688000Y-24307800D01*
X43658840Y-24313600D01*
X43634118Y-24330118D01*
X43617600Y-24354840D01*
X43611800Y-24384000D01*
X43611800Y-24403375D01*
X43570007Y-24465923D01*
X43544690Y-24593200D01*
X43544690Y-25343200D01*
X43570007Y-25470477D01*
X43611800Y-25533025D01*
X43611800Y-25933537D01*
X43560547Y-26010243D01*
X43535230Y-26137520D01*
X43535230Y-26887520D01*
X43560547Y-27014797D01*
X43611800Y-27091503D01*
X43611800Y-27402140D01*
X43557190Y-27402140D01*
X43500040Y-27459290D01*
X43500040Y-27852940D01*
X43520040Y-27852940D01*
X43520040Y-28208540D01*
X43500040Y-28208540D01*
X43500040Y-28602190D01*
X43557190Y-28659340D01*
X43611800Y-28659340D01*
X43611800Y-28798150D01*
X43230420Y-28798150D01*
X43230420Y-28716927D01*
X43144440Y-28509355D01*
X43144440Y-28208540D01*
X42775790Y-28208540D01*
X42728990Y-28255340D01*
X42539607Y-28255340D01*
X42539150Y-28255529D01*
X42539150Y-27681840D01*
X42519941Y-27585269D01*
X42718640Y-27585269D01*
X42718640Y-27795790D01*
X42775790Y-27852940D01*
X43144440Y-27852940D01*
X43144440Y-27459290D01*
X43087290Y-27402140D01*
X42901768Y-27402140D01*
X42817748Y-27436943D01*
X42753442Y-27501249D01*
X42718640Y-27585269D01*
X42519941Y-27585269D01*
X42513833Y-27554563D01*
X42441737Y-27446663D01*
X42333837Y-27374567D01*
X42206560Y-27349250D01*
X41759690Y-27349250D01*
X41732200Y-27321760D01*
X41732200Y-26989944D01*
X41786463Y-27012421D01*
X42015689Y-27012421D01*
X42149212Y-26957114D01*
X42174023Y-27017012D01*
X42238329Y-27081318D01*
X42322349Y-27116120D01*
X42532870Y-27116120D01*
X42590020Y-27058970D01*
X42590020Y-26690320D01*
X42945620Y-26690320D01*
X42945620Y-27058970D01*
X43002770Y-27116120D01*
X43213291Y-27116120D01*
X43297311Y-27081318D01*
X43361617Y-27017012D01*
X43396420Y-26932992D01*
X43396420Y-26747470D01*
X43339270Y-26690320D01*
X42945620Y-26690320D01*
X42590020Y-26690320D01*
X42570020Y-26690320D01*
X42570020Y-26334720D01*
X42590020Y-26334720D01*
X42590020Y-25966070D01*
X42945620Y-25966070D01*
X42945620Y-26334720D01*
X43339270Y-26334720D01*
X43396420Y-26277570D01*
X43396420Y-26092048D01*
X43361617Y-26008028D01*
X43297311Y-25943722D01*
X43213291Y-25908920D01*
X43002770Y-25908920D01*
X42945620Y-25966070D01*
X42590020Y-25966070D01*
X42532870Y-25908920D01*
X42411782Y-25908920D01*
X42477263Y-25750837D01*
X42477263Y-25571800D01*
X42542330Y-25571800D01*
X42599480Y-25514650D01*
X42599480Y-25146000D01*
X42955080Y-25146000D01*
X42955080Y-25514650D01*
X43012230Y-25571800D01*
X43222751Y-25571800D01*
X43306771Y-25536998D01*
X43371077Y-25472692D01*
X43405880Y-25388672D01*
X43405880Y-25203150D01*
X43348730Y-25146000D01*
X42955080Y-25146000D01*
X42599480Y-25146000D01*
X42223239Y-25146000D01*
X42015676Y-25060024D01*
X41786450Y-25060024D01*
X41732200Y-25082495D01*
X41732200Y-24662870D01*
X42037160Y-24662870D01*
X42148680Y-24640687D01*
X42148680Y-24733250D01*
X42205830Y-24790400D01*
X42599480Y-24790400D01*
X42599480Y-24421750D01*
X42955080Y-24421750D01*
X42955080Y-24790400D01*
X43348730Y-24790400D01*
X43405880Y-24733250D01*
X43405880Y-24547728D01*
X43371077Y-24463708D01*
X43306771Y-24399402D01*
X43222751Y-24364600D01*
X43012230Y-24364600D01*
X42955080Y-24421750D01*
X42599480Y-24421750D01*
X42542330Y-24364600D01*
X42362923Y-24364600D01*
X42369750Y-24330280D01*
X42369750Y-24258080D01*
X42601927Y-24258080D01*
X42644060Y-24266461D01*
X42686193Y-24258080D01*
X42686194Y-24258080D01*
X42810979Y-24233259D01*
X42923299Y-24158210D01*
X43185460Y-24158210D01*
X43312737Y-24132893D01*
X43420637Y-24060797D01*
X43492733Y-23952897D01*
X43518050Y-23825620D01*
X43518050Y-23610570D01*
X43956860Y-23610570D01*
X43956860Y-23871092D01*
X43991663Y-23955112D01*
X44055969Y-24019418D01*
X44139989Y-24054220D01*
X44253310Y-24054220D01*
X44310460Y-23997070D01*
X44310460Y-23553420D01*
X44560460Y-23553420D01*
X44560460Y-23997070D01*
X44617610Y-24054220D01*
X44730931Y-24054220D01*
X44814951Y-24019418D01*
X44879257Y-23955112D01*
X44914060Y-23871092D01*
X44914060Y-23610570D01*
X44873420Y-23569930D01*
X45355160Y-23569930D01*
X45355160Y-23780451D01*
X45389962Y-23864471D01*
X45454268Y-23928777D01*
X45538288Y-23963580D01*
X45723810Y-23963580D01*
X45780960Y-23906430D01*
X45780960Y-23512780D01*
X46136560Y-23512780D01*
X46136560Y-23906430D01*
X46193710Y-23963580D01*
X46379232Y-23963580D01*
X46463252Y-23928777D01*
X46527558Y-23864471D01*
X46562360Y-23780451D01*
X46562360Y-23569930D01*
X46505210Y-23512780D01*
X46136560Y-23512780D01*
X45780960Y-23512780D01*
X45412310Y-23512780D01*
X45355160Y-23569930D01*
X44873420Y-23569930D01*
X44856910Y-23553420D01*
X44560460Y-23553420D01*
X44310460Y-23553420D01*
X44014010Y-23553420D01*
X43956860Y-23610570D01*
X43518050Y-23610570D01*
X43518050Y-22925620D01*
X43509006Y-22880148D01*
X43956860Y-22880148D01*
X43956860Y-23140670D01*
X44014010Y-23197820D01*
X44310460Y-23197820D01*
X44310460Y-22754170D01*
X44560460Y-22754170D01*
X44560460Y-23197820D01*
X44856910Y-23197820D01*
X44914060Y-23140670D01*
X44914060Y-22889509D01*
X45355160Y-22889509D01*
X45355160Y-23100030D01*
X45412310Y-23157180D01*
X45780960Y-23157180D01*
X45780960Y-22763530D01*
X45723810Y-22706380D01*
X45538288Y-22706380D01*
X45454268Y-22741183D01*
X45389962Y-22805489D01*
X45355160Y-22889509D01*
X44914060Y-22889509D01*
X44914060Y-22880148D01*
X44879257Y-22796128D01*
X44814951Y-22731822D01*
X44730931Y-22697020D01*
X44617610Y-22697020D01*
X44560460Y-22754170D01*
X44310460Y-22754170D01*
X44253310Y-22697020D01*
X44139989Y-22697020D01*
X44055969Y-22731822D01*
X43991663Y-22796128D01*
X43956860Y-22880148D01*
X43509006Y-22880148D01*
X43492733Y-22798343D01*
X43420637Y-22690443D01*
X43408300Y-22682200D01*
X46012716Y-22682200D01*
X46136560Y-22806044D01*
G04 #@! TO.N,VCCIO_3*
G36*
X54394427Y-23535979D02*
X54737000Y-23878553D01*
X55079573Y-23535979D01*
X55018603Y-23444200D01*
X55676800Y-23444200D01*
X55676800Y-25654000D01*
X55682600Y-25683160D01*
X55699118Y-25707882D01*
X55723840Y-25724400D01*
X55753000Y-25730200D01*
X60013731Y-25730200D01*
X60013731Y-26517600D01*
X60039358Y-26646438D01*
X60112339Y-26755661D01*
X60221562Y-26828642D01*
X60350400Y-26854269D01*
X62077600Y-26854269D01*
X62206438Y-26828642D01*
X62315661Y-26755661D01*
X62388642Y-26646438D01*
X62414269Y-26517600D01*
X62414269Y-25730200D01*
X62551970Y-25730200D01*
X62629466Y-26119797D01*
X62893319Y-26514681D01*
X63288203Y-26778534D01*
X63636426Y-26847800D01*
X63871574Y-26847800D01*
X64219797Y-26778534D01*
X64614681Y-26514681D01*
X64619800Y-26507019D01*
X64619800Y-27340981D01*
X64614681Y-27333319D01*
X64219797Y-27069466D01*
X63871574Y-27000200D01*
X63636426Y-27000200D01*
X63288203Y-27069466D01*
X62893319Y-27333319D01*
X62629466Y-27728203D01*
X62536813Y-28194000D01*
X62629466Y-28659797D01*
X62893319Y-29054681D01*
X63288203Y-29318534D01*
X63636426Y-29387800D01*
X63871574Y-29387800D01*
X64219797Y-29318534D01*
X64614681Y-29054681D01*
X64619801Y-29047019D01*
X64619801Y-29880981D01*
X64614681Y-29873319D01*
X64219797Y-29609466D01*
X63871574Y-29540200D01*
X63636426Y-29540200D01*
X63288203Y-29609466D01*
X62893319Y-29873319D01*
X62629466Y-30268203D01*
X62536813Y-30734000D01*
X62629466Y-31199797D01*
X62893319Y-31594681D01*
X63288203Y-31858534D01*
X63636426Y-31927800D01*
X63871574Y-31927800D01*
X64219797Y-31858534D01*
X64614681Y-31594681D01*
X64619801Y-31587019D01*
X64619801Y-32420981D01*
X64614681Y-32413319D01*
X64219797Y-32149466D01*
X63871574Y-32080200D01*
X63636426Y-32080200D01*
X63288203Y-32149466D01*
X62893319Y-32413319D01*
X62878298Y-32435800D01*
X62089702Y-32435800D01*
X62074681Y-32413319D01*
X61679797Y-32149466D01*
X61331574Y-32080200D01*
X61096426Y-32080200D01*
X60748203Y-32149466D01*
X60353319Y-32413319D01*
X60338298Y-32435800D01*
X60147200Y-32435800D01*
X60147200Y-31578549D01*
X60163620Y-31496000D01*
X60147200Y-31413451D01*
X60147200Y-31413446D01*
X60098567Y-31168951D01*
X60037923Y-31078190D01*
X60177450Y-31078190D01*
X60237656Y-31223583D01*
X60499331Y-31559946D01*
X60869808Y-31770567D01*
X61036200Y-31754499D01*
X61036200Y-30911800D01*
X61391800Y-30911800D01*
X61391800Y-31754499D01*
X61558192Y-31770567D01*
X61928669Y-31559946D01*
X62190344Y-31223583D01*
X62250550Y-31078190D01*
X62233664Y-30911800D01*
X61391800Y-30911800D01*
X61036200Y-30911800D01*
X60194336Y-30911800D01*
X60177450Y-31078190D01*
X60037923Y-31078190D01*
X59977659Y-30988000D01*
X59960071Y-30961677D01*
X59960070Y-30961676D01*
X59913308Y-30891692D01*
X59843324Y-30844931D01*
X59388203Y-30389810D01*
X60177450Y-30389810D01*
X60194336Y-30556200D01*
X61036200Y-30556200D01*
X61036200Y-29713501D01*
X61391800Y-29713501D01*
X61391800Y-30556200D01*
X62233664Y-30556200D01*
X62250550Y-30389810D01*
X62190344Y-30244417D01*
X61928669Y-29908054D01*
X61558192Y-29697433D01*
X61391800Y-29713501D01*
X61036200Y-29713501D01*
X60869808Y-29697433D01*
X60499331Y-29908054D01*
X60237656Y-30244417D01*
X60177450Y-30389810D01*
X59388203Y-30389810D01*
X59119102Y-30120709D01*
X59136280Y-30120709D01*
X59265118Y-30095082D01*
X59374341Y-30022101D01*
X59447322Y-29912878D01*
X59472949Y-29784040D01*
X59472949Y-28768040D01*
X59447322Y-28639202D01*
X59374341Y-28529979D01*
X59265118Y-28456998D01*
X59136280Y-28431371D01*
X58170312Y-28431371D01*
X58120280Y-28421419D01*
X58070248Y-28431371D01*
X57104280Y-28431371D01*
X56975442Y-28456998D01*
X56866219Y-28529979D01*
X56793238Y-28639202D01*
X56767611Y-28768040D01*
X56767611Y-29784040D01*
X56793238Y-29912878D01*
X56866219Y-30022101D01*
X56975442Y-30095082D01*
X57104280Y-30120709D01*
X57282081Y-30120709D01*
X57282081Y-30224727D01*
X57265660Y-30307280D01*
X57330714Y-30634329D01*
X57469209Y-30841602D01*
X57469211Y-30841604D01*
X57515973Y-30911588D01*
X57585957Y-30958350D01*
X57923265Y-31295659D01*
X57855043Y-31267400D01*
X57460957Y-31267400D01*
X57096870Y-31418210D01*
X56818210Y-31696870D01*
X56667400Y-32060957D01*
X56667400Y-32435800D01*
X55049669Y-32435800D01*
X55049669Y-31709021D01*
X55918427Y-31709021D01*
X55980884Y-31803039D01*
X56265507Y-31857861D01*
X56541116Y-31803039D01*
X56603573Y-31709021D01*
X56261000Y-31366447D01*
X55918427Y-31709021D01*
X55049669Y-31709021D01*
X55049669Y-31506000D01*
X55024042Y-31377162D01*
X55011153Y-31357872D01*
X55148327Y-31220698D01*
X55190241Y-31119507D01*
X55518139Y-31119507D01*
X55572961Y-31395116D01*
X55666979Y-31457573D01*
X56009553Y-31115000D01*
X56512447Y-31115000D01*
X56855021Y-31457573D01*
X56949039Y-31395116D01*
X57003861Y-31110493D01*
X56949039Y-30834884D01*
X56855021Y-30772427D01*
X56512447Y-31115000D01*
X56009553Y-31115000D01*
X55666979Y-30772427D01*
X55572961Y-30834884D01*
X55518139Y-31119507D01*
X55190241Y-31119507D01*
X55245000Y-30987309D01*
X55245000Y-30734691D01*
X55178517Y-30574187D01*
X55249507Y-30587861D01*
X55525116Y-30533039D01*
X55533127Y-30520979D01*
X55918427Y-30520979D01*
X56261000Y-30863553D01*
X56603573Y-30520979D01*
X56541116Y-30426961D01*
X56256493Y-30372139D01*
X55980884Y-30426961D01*
X55918427Y-30520979D01*
X55533127Y-30520979D01*
X55587573Y-30439021D01*
X55245000Y-30096447D01*
X55230858Y-30110590D01*
X54979410Y-29859142D01*
X54993553Y-29845000D01*
X55496447Y-29845000D01*
X55839021Y-30187573D01*
X55933039Y-30125116D01*
X55987861Y-29840493D01*
X55933039Y-29564884D01*
X55839021Y-29502427D01*
X55496447Y-29845000D01*
X54993553Y-29845000D01*
X54650979Y-29502427D01*
X54556961Y-29564884D01*
X54502139Y-29849507D01*
X54556961Y-30125116D01*
X54650978Y-30187572D01*
X54612550Y-30226000D01*
X54483691Y-30226000D01*
X54250302Y-30322673D01*
X54071673Y-30501302D01*
X53975000Y-30734691D01*
X53975000Y-30868660D01*
X53872977Y-30970683D01*
X53828441Y-31000441D01*
X53715592Y-31169331D01*
X53713000Y-31169331D01*
X53584162Y-31194958D01*
X53474939Y-31267939D01*
X53401958Y-31377162D01*
X53376331Y-31506000D01*
X53376331Y-32435800D01*
X52941600Y-32435800D01*
X52941600Y-32365950D01*
X52884450Y-32308800D01*
X52390800Y-32308800D01*
X52390800Y-32328800D01*
X52035200Y-32328800D01*
X52035200Y-32308800D01*
X51541550Y-32308800D01*
X51484400Y-32365950D01*
X51484400Y-32435800D01*
X51028600Y-32435800D01*
X51028600Y-32060957D01*
X50877790Y-31696870D01*
X50641448Y-31460528D01*
X51484400Y-31460528D01*
X51484400Y-31896050D01*
X51541550Y-31953200D01*
X52035200Y-31953200D01*
X52035200Y-31334550D01*
X52390800Y-31334550D01*
X52390800Y-31953200D01*
X52884450Y-31953200D01*
X52941600Y-31896050D01*
X52941600Y-31460528D01*
X52906797Y-31376508D01*
X52842491Y-31312202D01*
X52758471Y-31277400D01*
X52447950Y-31277400D01*
X52390800Y-31334550D01*
X52035200Y-31334550D01*
X51978050Y-31277400D01*
X51667529Y-31277400D01*
X51583509Y-31312202D01*
X51519203Y-31376508D01*
X51484400Y-31460528D01*
X50641448Y-31460528D01*
X50599130Y-31418210D01*
X50235043Y-31267400D01*
X49840957Y-31267400D01*
X49686227Y-31331491D01*
X49479200Y-31124464D01*
X49479200Y-30276800D01*
X49769382Y-30276800D01*
X49809400Y-30284760D01*
X49849418Y-30276800D01*
X49849423Y-30276800D01*
X49967969Y-30253220D01*
X50046719Y-30200600D01*
X50240509Y-30200600D01*
X50473898Y-30103927D01*
X50652527Y-29925298D01*
X50749200Y-29691909D01*
X50749200Y-29550021D01*
X53378427Y-29550021D01*
X53440884Y-29644039D01*
X53725507Y-29698861D01*
X54001116Y-29644039D01*
X54063573Y-29550021D01*
X53721000Y-29207447D01*
X53378427Y-29550021D01*
X50749200Y-29550021D01*
X50749200Y-29439291D01*
X50652527Y-29205902D01*
X50494065Y-29047440D01*
X51281330Y-29047440D01*
X51338480Y-28990290D01*
X51338480Y-27167840D01*
X51694080Y-27167840D01*
X51694080Y-28990290D01*
X51751230Y-29047440D01*
X52577752Y-29047440D01*
X52661772Y-29012637D01*
X52713902Y-28960507D01*
X52978139Y-28960507D01*
X53032961Y-29236116D01*
X53126979Y-29298573D01*
X53469553Y-28956000D01*
X53972447Y-28956000D01*
X54315021Y-29298573D01*
X54386665Y-29250979D01*
X54902427Y-29250979D01*
X55245000Y-29593553D01*
X55587573Y-29250979D01*
X55525116Y-29156961D01*
X55240493Y-29102139D01*
X54964884Y-29156961D01*
X54902427Y-29250979D01*
X54386665Y-29250979D01*
X54409039Y-29236116D01*
X54463861Y-28951493D01*
X54409039Y-28675884D01*
X54315021Y-28613427D01*
X53972447Y-28956000D01*
X53469553Y-28956000D01*
X53126979Y-28613427D01*
X53032961Y-28675884D01*
X52978139Y-28960507D01*
X52713902Y-28960507D01*
X52726078Y-28948331D01*
X52760880Y-28864311D01*
X52760880Y-28361979D01*
X53378427Y-28361979D01*
X53721000Y-28704553D01*
X54063573Y-28361979D01*
X54001116Y-28267961D01*
X53716493Y-28213139D01*
X53440884Y-28267961D01*
X53378427Y-28361979D01*
X52760880Y-28361979D01*
X52760880Y-28194000D01*
X59996813Y-28194000D01*
X60089466Y-28659797D01*
X60353319Y-29054681D01*
X60748203Y-29318534D01*
X61096426Y-29387800D01*
X61331574Y-29387800D01*
X61679797Y-29318534D01*
X62074681Y-29054681D01*
X62338534Y-28659797D01*
X62431187Y-28194000D01*
X62338534Y-27728203D01*
X62074681Y-27333319D01*
X61679797Y-27069466D01*
X61331574Y-27000200D01*
X61096426Y-27000200D01*
X60748203Y-27069466D01*
X60353319Y-27333319D01*
X60089466Y-27728203D01*
X59996813Y-28194000D01*
X52760880Y-28194000D01*
X52760880Y-27224990D01*
X56875680Y-27224990D01*
X56875680Y-27543511D01*
X56910482Y-27627531D01*
X56974788Y-27691837D01*
X57058808Y-27726640D01*
X57885330Y-27726640D01*
X57942480Y-27669490D01*
X57942480Y-27167840D01*
X58298080Y-27167840D01*
X58298080Y-27669490D01*
X58355230Y-27726640D01*
X59181752Y-27726640D01*
X59265772Y-27691837D01*
X59330078Y-27627531D01*
X59364880Y-27543511D01*
X59364880Y-27224990D01*
X59307730Y-27167840D01*
X58298080Y-27167840D01*
X57942480Y-27167840D01*
X56932830Y-27167840D01*
X56875680Y-27224990D01*
X52760880Y-27224990D01*
X52703730Y-27167840D01*
X51694080Y-27167840D01*
X51338480Y-27167840D01*
X50328830Y-27167840D01*
X50271680Y-27224990D01*
X50271680Y-28864311D01*
X50306482Y-28948331D01*
X50322863Y-28964712D01*
X50240509Y-28930600D01*
X49987891Y-28930600D01*
X49754502Y-29027273D01*
X49575873Y-29205902D01*
X49479200Y-29439291D01*
X49479200Y-29178151D01*
X49635698Y-29113327D01*
X49814327Y-28934698D01*
X49911000Y-28701309D01*
X49911000Y-28448691D01*
X49814327Y-28215302D01*
X49684019Y-28084994D01*
X49704292Y-28076597D01*
X49768598Y-28012291D01*
X49803400Y-27928271D01*
X49803400Y-27717750D01*
X49746250Y-27660600D01*
X49479200Y-27660600D01*
X49479200Y-27305000D01*
X49746250Y-27305000D01*
X49803400Y-27247850D01*
X49803400Y-27037329D01*
X49768598Y-26953309D01*
X49704292Y-26889003D01*
X49620272Y-26854200D01*
X49479200Y-26854200D01*
X49479200Y-26719469D01*
X49574800Y-26719469D01*
X49703638Y-26693842D01*
X49812861Y-26620861D01*
X49885842Y-26511638D01*
X49911469Y-26382800D01*
X49911469Y-25582800D01*
X49885842Y-25453962D01*
X49812861Y-25344739D01*
X49743632Y-25298481D01*
X49743648Y-25298399D01*
X49733200Y-25245873D01*
X49733200Y-25245869D01*
X49707322Y-25115769D01*
X50271680Y-25115769D01*
X50271680Y-26755090D01*
X50328830Y-26812240D01*
X51338480Y-26812240D01*
X51338480Y-24989790D01*
X51694080Y-24989790D01*
X51694080Y-26812240D01*
X52703730Y-26812240D01*
X52760880Y-26755090D01*
X52760880Y-26436569D01*
X56875680Y-26436569D01*
X56875680Y-26755090D01*
X56932830Y-26812240D01*
X57942480Y-26812240D01*
X57942480Y-26310590D01*
X58298080Y-26310590D01*
X58298080Y-26812240D01*
X59307730Y-26812240D01*
X59364880Y-26755090D01*
X59364880Y-26436569D01*
X59330078Y-26352549D01*
X59265772Y-26288243D01*
X59181752Y-26253440D01*
X58355230Y-26253440D01*
X58298080Y-26310590D01*
X57942480Y-26310590D01*
X57885330Y-26253440D01*
X57058808Y-26253440D01*
X56974788Y-26288243D01*
X56910482Y-26352549D01*
X56875680Y-26436569D01*
X52760880Y-26436569D01*
X52760880Y-25115769D01*
X52726078Y-25031749D01*
X52661772Y-24967443D01*
X52577752Y-24932640D01*
X51751230Y-24932640D01*
X51694080Y-24989790D01*
X51338480Y-24989790D01*
X51281330Y-24932640D01*
X50454808Y-24932640D01*
X50370788Y-24967443D01*
X50306482Y-25031749D01*
X50271680Y-25115769D01*
X49707322Y-25115769D01*
X49702251Y-25090278D01*
X49586737Y-24917400D01*
X49707109Y-24917400D01*
X49940498Y-24820727D01*
X50037204Y-24724021D01*
X54394427Y-24724021D01*
X54456884Y-24818039D01*
X54741507Y-24872861D01*
X55017116Y-24818039D01*
X55079573Y-24724021D01*
X54737000Y-24381447D01*
X54394427Y-24724021D01*
X50037204Y-24724021D01*
X50119127Y-24642098D01*
X50215800Y-24408709D01*
X50215800Y-24156091D01*
X50206860Y-24134507D01*
X53994139Y-24134507D01*
X54048961Y-24410116D01*
X54142979Y-24472573D01*
X54485553Y-24130000D01*
X54988447Y-24130000D01*
X55331021Y-24472573D01*
X55425039Y-24410116D01*
X55479861Y-24125493D01*
X55425039Y-23849884D01*
X55331021Y-23787427D01*
X54988447Y-24130000D01*
X54485553Y-24130000D01*
X54142979Y-23787427D01*
X54048961Y-23849884D01*
X53994139Y-24134507D01*
X50206860Y-24134507D01*
X50119127Y-23922702D01*
X49940498Y-23744073D01*
X49707109Y-23647400D01*
X49669777Y-23647400D01*
X49706502Y-23592438D01*
X49732129Y-23463600D01*
X49732129Y-23444200D01*
X54455397Y-23444200D01*
X54394427Y-23535979D01*
X54394427Y-23535979D01*
G37*
X54394427Y-23535979D02*
X54737000Y-23878553D01*
X55079573Y-23535979D01*
X55018603Y-23444200D01*
X55676800Y-23444200D01*
X55676800Y-25654000D01*
X55682600Y-25683160D01*
X55699118Y-25707882D01*
X55723840Y-25724400D01*
X55753000Y-25730200D01*
X60013731Y-25730200D01*
X60013731Y-26517600D01*
X60039358Y-26646438D01*
X60112339Y-26755661D01*
X60221562Y-26828642D01*
X60350400Y-26854269D01*
X62077600Y-26854269D01*
X62206438Y-26828642D01*
X62315661Y-26755661D01*
X62388642Y-26646438D01*
X62414269Y-26517600D01*
X62414269Y-25730200D01*
X62551970Y-25730200D01*
X62629466Y-26119797D01*
X62893319Y-26514681D01*
X63288203Y-26778534D01*
X63636426Y-26847800D01*
X63871574Y-26847800D01*
X64219797Y-26778534D01*
X64614681Y-26514681D01*
X64619800Y-26507019D01*
X64619800Y-27340981D01*
X64614681Y-27333319D01*
X64219797Y-27069466D01*
X63871574Y-27000200D01*
X63636426Y-27000200D01*
X63288203Y-27069466D01*
X62893319Y-27333319D01*
X62629466Y-27728203D01*
X62536813Y-28194000D01*
X62629466Y-28659797D01*
X62893319Y-29054681D01*
X63288203Y-29318534D01*
X63636426Y-29387800D01*
X63871574Y-29387800D01*
X64219797Y-29318534D01*
X64614681Y-29054681D01*
X64619801Y-29047019D01*
X64619801Y-29880981D01*
X64614681Y-29873319D01*
X64219797Y-29609466D01*
X63871574Y-29540200D01*
X63636426Y-29540200D01*
X63288203Y-29609466D01*
X62893319Y-29873319D01*
X62629466Y-30268203D01*
X62536813Y-30734000D01*
X62629466Y-31199797D01*
X62893319Y-31594681D01*
X63288203Y-31858534D01*
X63636426Y-31927800D01*
X63871574Y-31927800D01*
X64219797Y-31858534D01*
X64614681Y-31594681D01*
X64619801Y-31587019D01*
X64619801Y-32420981D01*
X64614681Y-32413319D01*
X64219797Y-32149466D01*
X63871574Y-32080200D01*
X63636426Y-32080200D01*
X63288203Y-32149466D01*
X62893319Y-32413319D01*
X62878298Y-32435800D01*
X62089702Y-32435800D01*
X62074681Y-32413319D01*
X61679797Y-32149466D01*
X61331574Y-32080200D01*
X61096426Y-32080200D01*
X60748203Y-32149466D01*
X60353319Y-32413319D01*
X60338298Y-32435800D01*
X60147200Y-32435800D01*
X60147200Y-31578549D01*
X60163620Y-31496000D01*
X60147200Y-31413451D01*
X60147200Y-31413446D01*
X60098567Y-31168951D01*
X60037923Y-31078190D01*
X60177450Y-31078190D01*
X60237656Y-31223583D01*
X60499331Y-31559946D01*
X60869808Y-31770567D01*
X61036200Y-31754499D01*
X61036200Y-30911800D01*
X61391800Y-30911800D01*
X61391800Y-31754499D01*
X61558192Y-31770567D01*
X61928669Y-31559946D01*
X62190344Y-31223583D01*
X62250550Y-31078190D01*
X62233664Y-30911800D01*
X61391800Y-30911800D01*
X61036200Y-30911800D01*
X60194336Y-30911800D01*
X60177450Y-31078190D01*
X60037923Y-31078190D01*
X59977659Y-30988000D01*
X59960071Y-30961677D01*
X59960070Y-30961676D01*
X59913308Y-30891692D01*
X59843324Y-30844931D01*
X59388203Y-30389810D01*
X60177450Y-30389810D01*
X60194336Y-30556200D01*
X61036200Y-30556200D01*
X61036200Y-29713501D01*
X61391800Y-29713501D01*
X61391800Y-30556200D01*
X62233664Y-30556200D01*
X62250550Y-30389810D01*
X62190344Y-30244417D01*
X61928669Y-29908054D01*
X61558192Y-29697433D01*
X61391800Y-29713501D01*
X61036200Y-29713501D01*
X60869808Y-29697433D01*
X60499331Y-29908054D01*
X60237656Y-30244417D01*
X60177450Y-30389810D01*
X59388203Y-30389810D01*
X59119102Y-30120709D01*
X59136280Y-30120709D01*
X59265118Y-30095082D01*
X59374341Y-30022101D01*
X59447322Y-29912878D01*
X59472949Y-29784040D01*
X59472949Y-28768040D01*
X59447322Y-28639202D01*
X59374341Y-28529979D01*
X59265118Y-28456998D01*
X59136280Y-28431371D01*
X58170312Y-28431371D01*
X58120280Y-28421419D01*
X58070248Y-28431371D01*
X57104280Y-28431371D01*
X56975442Y-28456998D01*
X56866219Y-28529979D01*
X56793238Y-28639202D01*
X56767611Y-28768040D01*
X56767611Y-29784040D01*
X56793238Y-29912878D01*
X56866219Y-30022101D01*
X56975442Y-30095082D01*
X57104280Y-30120709D01*
X57282081Y-30120709D01*
X57282081Y-30224727D01*
X57265660Y-30307280D01*
X57330714Y-30634329D01*
X57469209Y-30841602D01*
X57469211Y-30841604D01*
X57515973Y-30911588D01*
X57585957Y-30958350D01*
X57923265Y-31295659D01*
X57855043Y-31267400D01*
X57460957Y-31267400D01*
X57096870Y-31418210D01*
X56818210Y-31696870D01*
X56667400Y-32060957D01*
X56667400Y-32435800D01*
X55049669Y-32435800D01*
X55049669Y-31709021D01*
X55918427Y-31709021D01*
X55980884Y-31803039D01*
X56265507Y-31857861D01*
X56541116Y-31803039D01*
X56603573Y-31709021D01*
X56261000Y-31366447D01*
X55918427Y-31709021D01*
X55049669Y-31709021D01*
X55049669Y-31506000D01*
X55024042Y-31377162D01*
X55011153Y-31357872D01*
X55148327Y-31220698D01*
X55190241Y-31119507D01*
X55518139Y-31119507D01*
X55572961Y-31395116D01*
X55666979Y-31457573D01*
X56009553Y-31115000D01*
X56512447Y-31115000D01*
X56855021Y-31457573D01*
X56949039Y-31395116D01*
X57003861Y-31110493D01*
X56949039Y-30834884D01*
X56855021Y-30772427D01*
X56512447Y-31115000D01*
X56009553Y-31115000D01*
X55666979Y-30772427D01*
X55572961Y-30834884D01*
X55518139Y-31119507D01*
X55190241Y-31119507D01*
X55245000Y-30987309D01*
X55245000Y-30734691D01*
X55178517Y-30574187D01*
X55249507Y-30587861D01*
X55525116Y-30533039D01*
X55533127Y-30520979D01*
X55918427Y-30520979D01*
X56261000Y-30863553D01*
X56603573Y-30520979D01*
X56541116Y-30426961D01*
X56256493Y-30372139D01*
X55980884Y-30426961D01*
X55918427Y-30520979D01*
X55533127Y-30520979D01*
X55587573Y-30439021D01*
X55245000Y-30096447D01*
X55230858Y-30110590D01*
X54979410Y-29859142D01*
X54993553Y-29845000D01*
X55496447Y-29845000D01*
X55839021Y-30187573D01*
X55933039Y-30125116D01*
X55987861Y-29840493D01*
X55933039Y-29564884D01*
X55839021Y-29502427D01*
X55496447Y-29845000D01*
X54993553Y-29845000D01*
X54650979Y-29502427D01*
X54556961Y-29564884D01*
X54502139Y-29849507D01*
X54556961Y-30125116D01*
X54650978Y-30187572D01*
X54612550Y-30226000D01*
X54483691Y-30226000D01*
X54250302Y-30322673D01*
X54071673Y-30501302D01*
X53975000Y-30734691D01*
X53975000Y-30868660D01*
X53872977Y-30970683D01*
X53828441Y-31000441D01*
X53715592Y-31169331D01*
X53713000Y-31169331D01*
X53584162Y-31194958D01*
X53474939Y-31267939D01*
X53401958Y-31377162D01*
X53376331Y-31506000D01*
X53376331Y-32435800D01*
X52941600Y-32435800D01*
X52941600Y-32365950D01*
X52884450Y-32308800D01*
X52390800Y-32308800D01*
X52390800Y-32328800D01*
X52035200Y-32328800D01*
X52035200Y-32308800D01*
X51541550Y-32308800D01*
X51484400Y-32365950D01*
X51484400Y-32435800D01*
X51028600Y-32435800D01*
X51028600Y-32060957D01*
X50877790Y-31696870D01*
X50641448Y-31460528D01*
X51484400Y-31460528D01*
X51484400Y-31896050D01*
X51541550Y-31953200D01*
X52035200Y-31953200D01*
X52035200Y-31334550D01*
X52390800Y-31334550D01*
X52390800Y-31953200D01*
X52884450Y-31953200D01*
X52941600Y-31896050D01*
X52941600Y-31460528D01*
X52906797Y-31376508D01*
X52842491Y-31312202D01*
X52758471Y-31277400D01*
X52447950Y-31277400D01*
X52390800Y-31334550D01*
X52035200Y-31334550D01*
X51978050Y-31277400D01*
X51667529Y-31277400D01*
X51583509Y-31312202D01*
X51519203Y-31376508D01*
X51484400Y-31460528D01*
X50641448Y-31460528D01*
X50599130Y-31418210D01*
X50235043Y-31267400D01*
X49840957Y-31267400D01*
X49686227Y-31331491D01*
X49479200Y-31124464D01*
X49479200Y-30276800D01*
X49769382Y-30276800D01*
X49809400Y-30284760D01*
X49849418Y-30276800D01*
X49849423Y-30276800D01*
X49967969Y-30253220D01*
X50046719Y-30200600D01*
X50240509Y-30200600D01*
X50473898Y-30103927D01*
X50652527Y-29925298D01*
X50749200Y-29691909D01*
X50749200Y-29550021D01*
X53378427Y-29550021D01*
X53440884Y-29644039D01*
X53725507Y-29698861D01*
X54001116Y-29644039D01*
X54063573Y-29550021D01*
X53721000Y-29207447D01*
X53378427Y-29550021D01*
X50749200Y-29550021D01*
X50749200Y-29439291D01*
X50652527Y-29205902D01*
X50494065Y-29047440D01*
X51281330Y-29047440D01*
X51338480Y-28990290D01*
X51338480Y-27167840D01*
X51694080Y-27167840D01*
X51694080Y-28990290D01*
X51751230Y-29047440D01*
X52577752Y-29047440D01*
X52661772Y-29012637D01*
X52713902Y-28960507D01*
X52978139Y-28960507D01*
X53032961Y-29236116D01*
X53126979Y-29298573D01*
X53469553Y-28956000D01*
X53972447Y-28956000D01*
X54315021Y-29298573D01*
X54386665Y-29250979D01*
X54902427Y-29250979D01*
X55245000Y-29593553D01*
X55587573Y-29250979D01*
X55525116Y-29156961D01*
X55240493Y-29102139D01*
X54964884Y-29156961D01*
X54902427Y-29250979D01*
X54386665Y-29250979D01*
X54409039Y-29236116D01*
X54463861Y-28951493D01*
X54409039Y-28675884D01*
X54315021Y-28613427D01*
X53972447Y-28956000D01*
X53469553Y-28956000D01*
X53126979Y-28613427D01*
X53032961Y-28675884D01*
X52978139Y-28960507D01*
X52713902Y-28960507D01*
X52726078Y-28948331D01*
X52760880Y-28864311D01*
X52760880Y-28361979D01*
X53378427Y-28361979D01*
X53721000Y-28704553D01*
X54063573Y-28361979D01*
X54001116Y-28267961D01*
X53716493Y-28213139D01*
X53440884Y-28267961D01*
X53378427Y-28361979D01*
X52760880Y-28361979D01*
X52760880Y-28194000D01*
X59996813Y-28194000D01*
X60089466Y-28659797D01*
X60353319Y-29054681D01*
X60748203Y-29318534D01*
X61096426Y-29387800D01*
X61331574Y-29387800D01*
X61679797Y-29318534D01*
X62074681Y-29054681D01*
X62338534Y-28659797D01*
X62431187Y-28194000D01*
X62338534Y-27728203D01*
X62074681Y-27333319D01*
X61679797Y-27069466D01*
X61331574Y-27000200D01*
X61096426Y-27000200D01*
X60748203Y-27069466D01*
X60353319Y-27333319D01*
X60089466Y-27728203D01*
X59996813Y-28194000D01*
X52760880Y-28194000D01*
X52760880Y-27224990D01*
X56875680Y-27224990D01*
X56875680Y-27543511D01*
X56910482Y-27627531D01*
X56974788Y-27691837D01*
X57058808Y-27726640D01*
X57885330Y-27726640D01*
X57942480Y-27669490D01*
X57942480Y-27167840D01*
X58298080Y-27167840D01*
X58298080Y-27669490D01*
X58355230Y-27726640D01*
X59181752Y-27726640D01*
X59265772Y-27691837D01*
X59330078Y-27627531D01*
X59364880Y-27543511D01*
X59364880Y-27224990D01*
X59307730Y-27167840D01*
X58298080Y-27167840D01*
X57942480Y-27167840D01*
X56932830Y-27167840D01*
X56875680Y-27224990D01*
X52760880Y-27224990D01*
X52703730Y-27167840D01*
X51694080Y-27167840D01*
X51338480Y-27167840D01*
X50328830Y-27167840D01*
X50271680Y-27224990D01*
X50271680Y-28864311D01*
X50306482Y-28948331D01*
X50322863Y-28964712D01*
X50240509Y-28930600D01*
X49987891Y-28930600D01*
X49754502Y-29027273D01*
X49575873Y-29205902D01*
X49479200Y-29439291D01*
X49479200Y-29178151D01*
X49635698Y-29113327D01*
X49814327Y-28934698D01*
X49911000Y-28701309D01*
X49911000Y-28448691D01*
X49814327Y-28215302D01*
X49684019Y-28084994D01*
X49704292Y-28076597D01*
X49768598Y-28012291D01*
X49803400Y-27928271D01*
X49803400Y-27717750D01*
X49746250Y-27660600D01*
X49479200Y-27660600D01*
X49479200Y-27305000D01*
X49746250Y-27305000D01*
X49803400Y-27247850D01*
X49803400Y-27037329D01*
X49768598Y-26953309D01*
X49704292Y-26889003D01*
X49620272Y-26854200D01*
X49479200Y-26854200D01*
X49479200Y-26719469D01*
X49574800Y-26719469D01*
X49703638Y-26693842D01*
X49812861Y-26620861D01*
X49885842Y-26511638D01*
X49911469Y-26382800D01*
X49911469Y-25582800D01*
X49885842Y-25453962D01*
X49812861Y-25344739D01*
X49743632Y-25298481D01*
X49743648Y-25298399D01*
X49733200Y-25245873D01*
X49733200Y-25245869D01*
X49707322Y-25115769D01*
X50271680Y-25115769D01*
X50271680Y-26755090D01*
X50328830Y-26812240D01*
X51338480Y-26812240D01*
X51338480Y-24989790D01*
X51694080Y-24989790D01*
X51694080Y-26812240D01*
X52703730Y-26812240D01*
X52760880Y-26755090D01*
X52760880Y-26436569D01*
X56875680Y-26436569D01*
X56875680Y-26755090D01*
X56932830Y-26812240D01*
X57942480Y-26812240D01*
X57942480Y-26310590D01*
X58298080Y-26310590D01*
X58298080Y-26812240D01*
X59307730Y-26812240D01*
X59364880Y-26755090D01*
X59364880Y-26436569D01*
X59330078Y-26352549D01*
X59265772Y-26288243D01*
X59181752Y-26253440D01*
X58355230Y-26253440D01*
X58298080Y-26310590D01*
X57942480Y-26310590D01*
X57885330Y-26253440D01*
X57058808Y-26253440D01*
X56974788Y-26288243D01*
X56910482Y-26352549D01*
X56875680Y-26436569D01*
X52760880Y-26436569D01*
X52760880Y-25115769D01*
X52726078Y-25031749D01*
X52661772Y-24967443D01*
X52577752Y-24932640D01*
X51751230Y-24932640D01*
X51694080Y-24989790D01*
X51338480Y-24989790D01*
X51281330Y-24932640D01*
X50454808Y-24932640D01*
X50370788Y-24967443D01*
X50306482Y-25031749D01*
X50271680Y-25115769D01*
X49707322Y-25115769D01*
X49702251Y-25090278D01*
X49586737Y-24917400D01*
X49707109Y-24917400D01*
X49940498Y-24820727D01*
X50037204Y-24724021D01*
X54394427Y-24724021D01*
X54456884Y-24818039D01*
X54741507Y-24872861D01*
X55017116Y-24818039D01*
X55079573Y-24724021D01*
X54737000Y-24381447D01*
X54394427Y-24724021D01*
X50037204Y-24724021D01*
X50119127Y-24642098D01*
X50215800Y-24408709D01*
X50215800Y-24156091D01*
X50206860Y-24134507D01*
X53994139Y-24134507D01*
X54048961Y-24410116D01*
X54142979Y-24472573D01*
X54485553Y-24130000D01*
X54988447Y-24130000D01*
X55331021Y-24472573D01*
X55425039Y-24410116D01*
X55479861Y-24125493D01*
X55425039Y-23849884D01*
X55331021Y-23787427D01*
X54988447Y-24130000D01*
X54485553Y-24130000D01*
X54142979Y-23787427D01*
X54048961Y-23849884D01*
X53994139Y-24134507D01*
X50206860Y-24134507D01*
X50119127Y-23922702D01*
X49940498Y-23744073D01*
X49707109Y-23647400D01*
X49669777Y-23647400D01*
X49706502Y-23592438D01*
X49732129Y-23463600D01*
X49732129Y-23444200D01*
X54455397Y-23444200D01*
X54394427Y-23535979D01*
G04 #@! TD*
M02*
